<?xml version="1.0" encoding="UTF-8" standalone="no"?>
<!-- Created with Inkscape (http://www.inkscape.org/) -->

<svg
   xmlns:dc="http://purl.org/dc/elements/1.1/"
   xmlns:cc="http://creativecommons.org/ns#"
   xmlns:rdf="http://www.w3.org/1999/02/22-rdf-syntax-ns#"
   xmlns:svg="http://www.w3.org/2000/svg"
   xmlns="http://www.w3.org/2000/svg"
   xmlns:sodipodi="http://sodipodi.sourceforge.net/DTD/sodipodi-0.dtd"
   xmlns:inkscape="http://www.inkscape.org/namespaces/inkscape"
   width="744.09448819"
   height="1052.3622047"
   id="svg3194"
   version="1.1"
   inkscape:version="0.48.4 r9939"
   sodipodi:docname="Cat1.svg">
  <defs
     id="defs3196" />
  <sodipodi:namedview
     id="base"
     pagecolor="#ffffff"
     bordercolor="#666666"
     borderopacity="1.0"
     inkscape:pageopacity="0.0"
     inkscape:pageshadow="2"
     inkscape:zoom="0.35"
     inkscape:cx="211.29169"
     inkscape:cy="608.03652"
     inkscape:document-units="px"
     inkscape:current-layer="layer1"
     showgrid="false"
     inkscape:window-width="1366"
     inkscape:window-height="711"
     inkscape:window-x="0"
     inkscape:window-y="0"
     inkscape:window-maximized="1" />
  <metadata
     id="metadata3199">
    <rdf:RDF>
      <cc:Work
         rdf:about="">
        <dc:format>image/svg+xml</dc:format>
        <dc:type
           rdf:resource="http://purl.org/dc/dcmitype/StillImage" />
        <dc:title />
      </cc:Work>
    </rdf:RDF>
  </metadata>
  <g
     inkscape:label="Layer 1"
     inkscape:groupmode="layer"
     id="layer1">
    <path
       inkscape:connector-curvature="0"
       style="fill:#0000ff;fill-opacity:1"
       d="m 641.33875,149.15479 c -1.51215,0.23386 -2.51773,1.50264 -3.55613,2.50161 -4.78396,4.78084 -9.63981,9.51156 -13.95235,14.73268 -0.69379,0.78587 -1.29199,1.66335 -1.81599,2.56127 -0.44732,0.20694 -0.95407,0.0217 -1.42656,0.0936 -4.97553,0.0219 -9.98006,-0.1117 -14.91763,0.61791 -0.3304,-0.16978 -0.32538,-0.6165 -0.57557,-0.86865 -1.46972,-2.39701 -3.60367,-4.26935 -5.54793,-6.26582 -2.83466,-2.7582 -5.52379,-5.65932 -8.22202,-8.54942 -1.31565,-1.37746 -2.63388,-2.77101 -4.13335,-3.95003 -1.22304,-0.74226 -2.8777,-0.55453 -3.95125,0.3737 -1.41738,1.05328 -2.11576,2.8046 -2.31158,4.51297 -1.22154,5.73536 -1.9903,11.70956 -0.89692,17.53032 0.73019,4.10782 2.32999,8.17858 5.2229,11.25171 0.17222,0.15595 0.45471,0.38594 0.20743,0.61285 -1.48199,2.52543 -3.19908,4.91314 -4.51881,7.5333 -0.74702,1.50301 -1.42023,3.08381 -1.64348,4.75862 -0.15259,1.56124 0.3826,3.13559 1.35169,4.35528 1.75673,2.42423 4.27158,4.12928 6.6818,5.83974 3.1106,2.13623 6.31234,4.25344 8.77008,7.16079 2.48454,2.82172 4.57939,6.05573 5.75011,9.64735 1.09093,3.7725 0.26323,7.95021 -1.88657,11.19687 -1.42328,2.17614 -3.37215,3.92689 -5.20396,5.7473 -3.32114,3.1826 -6.7784,6.21897 -10.12174,9.37807 -2.18487,2.04051 -4.40787,4.04968 -6.43433,6.25023 -2.12208,2.46804 -3.59235,5.577 -3.82184,8.84652 -0.0918,2.38699 1.88012,4.61081 4.24556,4.86049 1.83844,0.21385 3.59206,-0.49938 5.33229,-0.97045 0.0535,0.32374 -0.16224,0.62876 -0.18556,0.95343 -1.87733,7.84489 -1.19638,16.42813 2.58192,23.62069 2.1526,4.07122 5.53182,7.40221 9.40107,9.85499 0.16416,0.0969 0.12742,0.12294 -0.0466,0.0788 -2.45817,-0.36166 -5.18319,0.0578 -7.09714,1.74477 -1.96725,1.76436 -2.47779,4.67881 -1.91569,7.17306 0.56489,2.65903 2.40451,5.02663 4.88705,6.15736 4.89007,2.6016 10.59787,3.45951 16.07467,2.86814 2.93692,-0.39482 5.88893,-1.55226 7.94009,-3.75373 0.92672,-1.25287 0.80045,-2.89213 0.82078,-4.3659 -0.0156,-1.4594 -0.16269,-2.91483 -0.38713,-4.35613 0.83376,-0.0402 1.66501,0.0961 2.49984,0.0901 1.03212,0.0451 2.1247,-0.004 3.1199,0.0484 -0.54355,2.60238 -0.6875,5.30556 -0.30086,7.93924 0.30411,1.21496 1.28403,2.09677 2.31003,2.73355 2.94962,1.99887 6.61708,2.61656 10.12256,2.45513 4.77396,-0.12328 9.62335,-1.27434 13.6531,-3.91068 3.23716,-2.26529 4.56901,-6.91795 2.92969,-10.5285 -0.91753,-2.07418 -3.07487,-3.3409 -5.25542,-3.66915 -1.6964,-0.2835 -3.43549,-0.0463 -5.07699,0.42081 3.78638,-2.17522 6.92275,-5.41765 9.10245,-9.19115 1.5896,0.38543 3.11932,-0.3939 4.59654,-0.86701 5.23,-1.67598 10.6114,-3.16024 15.33506,-6.05045 9.91661,-5.87937 17.27739,-15.83432 20.14046,-26.98796 2.00546,-7.17894 3.35607,-14.59821 3.27084,-22.07427 -0.0359,-5.12281 -0.75857,-10.2229 -1.89032,-15.21285 -0.64066,-2.67803 -1.42483,-5.33615 -2.54202,-7.85649 -2.43944,-4.84933 -7.41317,-8.21532 -12.75036,-8.99404 -5.01316,-0.8178 -10.45842,0.3059 -14.42822,3.56578 -3.42974,2.90278 -5.22949,7.32955 -5.71552,11.71849 -0.403,3.62905 0.16496,7.31818 1.37508,10.74863 2.62148,8.17989 6.91391,15.83502 8.36189,24.37473 0.48302,2.89404 0.34133,5.89427 -0.48683,8.71317 -1.27058,4.56789 -3.96887,8.59687 -7.11279,12.09 -1.38102,1.56564 -2.83842,3.06123 -4.28658,4.56427 0.47191,-4.37122 0.23213,-8.82059 -0.7293,-13.11162 0.71657,0.34183 1.37,0.8063 2.09113,1.1441 1.37281,0.68808 2.95274,1.25588 4.50062,0.90589 1.81297,-0.47417 3.09498,-2.25506 3.18113,-4.09661 0.21532,-2.18442 -0.42676,-4.35014 -1.24793,-6.35018 -1.49415,-3.35179 -4.00406,-6.0893 -6.37406,-8.83801 -2.88561,-3.25946 -6.05162,-6.25609 -9.30984,-9.13824 -3.46122,-3.15299 -6.83296,-6.59765 -8.82312,-10.89999 -1.55292,-3.26781 -2.26722,-7.017 -1.54251,-10.59701 0.81668,-4.30037 3.33835,-8.12732 6.55757,-11.02863 3.7809,-3.5157 8.26284,-6.24883 11.70222,-10.13445 1.05937,-1.24977 2.12829,-2.62167 2.44021,-4.26936 0.24541,-1.79264 -0.65589,-3.48499 -1.66413,-4.89753 -1.30527,-1.84845 -2.76219,-3.58359 -4.18726,-5.33949 -1.48343,-1.78987 -2.98446,-3.56548 -4.43568,-5.38181 3.29263,-5.06433 4.9292,-11.29161 4.07423,-17.31002 -0.3764,-2.72215 -1.31933,-5.3216 -2.30082,-7.87439 -0.80513,-1.97518 -1.75378,-3.91849 -3.04082,-5.62554 -0.68246,-0.63862 -1.61128,-1.07822 -2.56043,-1.01116 z"
       id="path2996" />
    <path
       style="fill:#ffffff;fill-opacity:1"
       d="m 602.53803,186.76457 c 0.046,0.78322 0.39641,1.49925 0.68268,2.21603 0.25714,0.61746 0.54015,1.22854 0.9223,1.78003 0.33588,0.49205 0.76548,0.90949 1.17681,1.33727 0.71252,0.72808 1.47479,1.40539 2.24448,2.07201 0.78569,0.62554 1.70293,1.07161 2.65898,1.36991 0.0641,0.0904 -0.0616,0.17974 -0.14745,0.16681 -1.38763,0.14969 -2.78567,0.31703 -4.11841,0.75031 -1.0601,0.33722 -2.11249,0.71417 -3.1019,1.22713 -0.96914,0.50033 -1.87342,1.13691 -2.63127,1.9243 -0.55621,0.58021 -1.04067,1.23917 -1.37015,1.97478 -0.0282,0.0982 -0.1026,0.2055 -0.063,0.30749 0.0576,0.094 0.19725,0.0903 0.26797,0.0135 0.22546,-0.13856 0.42287,-0.31723 0.64453,-0.46174 1.26505,-0.91438 2.52329,-1.85946 3.93484,-2.54049 1.52322,-0.73211 3.17795,-1.11764 4.80977,-1.52302 1.19319,-0.29195 2.38188,-0.60658 3.54942,-0.98967 0.33463,-0.11288 0.6702,-0.22777 0.99642,-0.36162 0.17745,-0.13316 0.10513,-0.44058 -0.0939,-0.5136 -0.73407,-0.45707 -1.49047,-0.87737 -2.2186,-1.34415 -0.94848,-0.60038 -1.88438,-1.22211 -2.78752,-1.88908 -0.92129,-0.67375 -1.73545,-1.48509 -2.45939,-2.36538 -0.7042,-0.82825 -1.3625,-1.69797 -2.12655,-2.47352 -0.24305,-0.23993 -0.49677,-0.47358 -0.768,-0.6793 l -0.003,0.002 z"
       id="path3119"
       inkscape:connector-curvature="0" />
    <path
       inkscape:connector-curvature="0"
       style="fill:#ffffff;fill-opacity:1"
       d="m 632.22843,187.56286 c -1.05316,0.98781 -2.01419,2.07897 -3.16265,2.96129 -0.55928,0.42991 -1.15997,0.80225 -1.77712,1.14277 -1.62935,0.90894 -3.3236,1.6947 -4.95814,2.59397 -0.6257,0.34327 -1.2592,0.67338 -1.87143,1.04043 -0.092,0.0395 -0.16648,0.12475 -0.15375,0.23062 0.0147,0.17351 0.16912,0.29296 0.33022,0.32707 0.36299,0.14594 0.71749,0.31411 1.06904,0.486 1.13313,0.55539 2.2259,1.19036 3.28551,1.87496 0.8791,0.56565 1.75122,1.14214 2.63789,1.69592 0.80848,0.51727 1.62898,1.01937 2.39501,1.59904 0.64631,0.50318 1.23835,1.07077 1.84865,1.61552 0.0572,0.0521 0.14478,0.0401 0.18431,-0.027 0.0579,-0.0785 0.0303,-0.18182 -0.023,-0.25286 -0.2752,-0.72526 -0.49876,-1.49585 -0.99839,-2.10632 -0.56115,-0.67038 -1.31249,-1.13749 -2.04672,-1.59439 -1.30589,-0.80445 -2.56502,-1.68101 -3.84143,-2.53059 -0.54364,-0.34563 -1.13673,-0.60609 -1.74467,-0.81537 -0.11582,-0.0501 -0.25564,-0.0702 -0.35085,-0.15276 -0.0471,-0.11554 0.0955,-0.21884 0.2004,-0.18512 1.06087,-0.24373 2.03333,-0.76224 2.94858,-1.33727 1.16445,-0.7342 2.35279,-1.43704 3.44446,-2.27908 0.82305,-0.60628 1.49764,-1.4087 1.96493,-2.31715 0.29453,-0.57953 0.52901,-1.19774 0.62281,-1.84353 -0.007,-0.0327 0.0414,-0.12408 -0.004,-0.12618 z"
       id="path3119-2" />
    <path
       style="fill:#ffffff;fill-opacity:1"
       d="m 614.5695,202.01481 c -0.10461,0.0574 -0.12884,0.21026 -0.0591,0.30355 0.16303,0.31671 0.31716,0.63812 0.48772,0.95089 0.0797,0.14245 0.16366,0.28257 0.23206,0.43104 0.13474,0.26959 0.25971,0.54458 0.35892,0.8294 0.14704,0.39359 0.28708,0.78986 0.44628,1.17881 0.0838,0.20749 0.16499,0.41663 0.26476,0.61707 0.0584,0.1189 0.14794,0.24422 0.2858,0.27201 0.089,0.0124 0.18066,-0.0272 0.23259,-0.10053 0.0709,-0.0943 0.11202,-0.20686 0.15528,-0.31551 0.0709,-0.20043 0.12565,-0.40613 0.19276,-0.60789 0.10704,-0.33811 0.20797,-0.67866 0.34168,-1.00755 0.0851,-0.20949 0.19227,-0.40897 0.30946,-0.60212 0.10511,-0.17682 0.22579,-0.34377 0.34189,-0.51339 0.13253,-0.18852 0.26944,-0.37435 0.39341,-0.56863 0.0917,-0.14915 0.17133,-0.31133 0.19324,-0.48672 0.0107,-0.0646 -0.0317,-0.12032 -0.0847,-0.15178 -0.11827,-0.0768 -0.26553,-0.0576 -0.39929,-0.0721 -0.56122,-0.0269 -1.12234,-0.056 -1.6836,-0.0822 -0.6624,-0.0299 -1.32474,-0.061 -1.98739,-0.0842 -0.008,0.003 -0.0144,0.006 -0.0217,0.01 z"
       id="path3160"
       inkscape:connector-curvature="0" />
    <path
       style="fill:#0000ff;fill-opacity:1"
       d="m 74.155854,392.05124 c -0.976645,-0.0115 -1.884369,0.55372 -2.566341,1.20827 -1.964826,3.13151 -3.313121,6.63084 -4.265421,10.20034 -1.921696,6.2512 -1.301358,13.26503 1.76411,19.05443 0.613174,1.3674 1.433277,2.65742 2.428389,3.79038 -1.698352,2.69936 -3.00648,5.63472 -4.488162,8.45594 -1.245967,2.4358 -2.562172,4.89989 -3.070946,7.61625 -0.326152,2.17416 0.412365,4.41952 1.750339,6.134 1.629035,2.28278 3.730011,4.15935 5.653054,6.18327 3.736107,3.78706 7.56713,7.49403 11.034094,11.53476 1.246153,1.49218 2.443234,3.1311 2.86595,5.06567 0.645651,2.90621 -0.197227,6.04667 -2.047959,8.35345 -2.583911,3.4193 -5.845385,6.23002 -8.919123,9.18917 -3.6224,3.42444 -7.4007,6.71605 -10.586668,10.56696 -1.362591,1.67844 -2.64037,3.47776 -3.396185,5.51902 -0.582925,1.75491 -0.64483,3.75797 0.17938,5.44806 0.816429,1.56631 2.546715,2.5405 4.291051,2.59986 1.574873,0.11104 3.109495,-0.41509 4.517699,-1.0703 0.03675,-0.0152 0.07365,-0.03 0.110373,-0.0453 -2.263886,8.31717 -1.604635,17.44078 2.546653,25.09577 2.448836,4.3154 6.189933,7.78196 10.566956,10.21415 -0.06707,-0.0205 -0.133759,-0.0413 -0.201057,-0.061 -1.197507,-0.34192 -2.438794,-0.56401 -3.687887,-0.53814 -1.841572,0.0358 -3.711003,0.61939 -5.126773,1.82326 -1.272147,1.10398 -1.972818,2.75901 -2.116959,4.41719 -0.253989,2.65265 0.69213,5.4291 2.619582,7.28905 1.244134,1.1716 2.805144,1.92234 4.360027,2.59 2.663579,1.13852 5.520524,1.80995 8.408639,2.01443 1.93293,0.15584 3.886948,0.19206 5.812683,-0.067 2.195799,-0.30016 4.344229,-1.0537 6.191163,-2.28844 0.608215,-0.4221 1.200045,-0.88452 1.685275,-1.44678 0.56603,-0.7312 0.71831,-1.67802 0.7845,-2.5762 0.078,-1.21126 0.026,-2.42643 -0.0473,-3.63664 -0.0679,-0.96342 -0.17919,-1.93305 -0.40407,-2.87381 1.6816,0.13685 3.37102,0.20883 5.05777,0.20497 -0.19371,0.87613 -0.29379,1.77532 -0.35677,2.66884 -0.0734,1.21021 -0.12534,2.42538 -0.0473,3.63664 0.0662,0.89818 0.22044,1.845 0.78647,2.5762 0.48525,0.56226 1.0751,1.02468 1.68331,1.44678 1.84693,1.23474 3.99536,1.98828 6.19116,2.28844 1.92574,0.25904 3.87977,0.22282 5.81273,0.067 2.88808,-0.20448 5.74701,-0.87591 8.41058,-2.01443 1.55489,-0.66766 3.1159,-1.4184 4.36004,-2.59 1.92744,-1.85995 2.87357,-4.6364 2.61955,-7.28905 -0.14411,-1.65818 -0.84678,-3.31321 -2.11892,-4.41719 -1.41577,-1.20387 -3.2852,-1.78744 -5.12678,-1.82326 -0.4307,-0.009 -0.85975,0.0122 -1.28711,0.0572 3.19751,-2.12869 5.82037,-5.04136 7.72072,-8.3377 1.22011,0.3042 2.52238,-0.0697 3.6465,-0.57947 5.51266,-1.77468 11.22211,-3.2361 16.20425,-6.29565 9.95247,-5.83913 17.32245,-15.80039 20.19765,-26.95648 2.43953,-8.58714 3.86096,-17.5691 3.10643,-26.50708 -0.47528,-5.68443 -1.54074,-11.34307 -3.40604,-16.74037 -1.71109,-5.07371 -6.13743,-9.00195 -11.25486,-10.43688 -1.79207,-0.53734 -3.6661,-0.80015 -5.53675,-0.77857 -5.05011,-0.028 -10.32571,1.98737 -13.41123,6.11626 -3.94368,5.39523 -4.5733,12.7239 -2.51509,18.97559 2.63599,9.02531 7.66813,17.32015 8.89941,26.74952 0.68044,5.94277 -1.68359,11.84989 -5.24305,16.51567 -2.02089,2.77935 -4.4625,5.20853 -6.83966,7.68919 0.53047,-4.45861 0.2586,-9.01202 -0.78252,-13.38758 1.13701,0.74383 2.31633,1.42015 3.57159,1.95137 1.47007,0.49171 3.20584,0.41582 4.49605,-0.5046 1.48398,-1.11586 2.15055,-3.10192 1.89224,-4.90995 -0.22766,-2.12633 -1.16775,-4.0821 -2.11301,-5.97041 -2.15973,-4.02972 -5.30526,-7.4075 -8.51114,-10.62214 -3.57852,-3.57085 -7.49169,-6.81266 -10.80545,-10.64383 -1.61499,-1.92978 -3.04076,-4.11621 -3.60116,-6.60115 -0.76922,-3.41588 0.0441,-7.12642 2.09526,-9.95396 1.67588,-2.38521 3.82811,-4.37053 5.77132,-6.52821 3.62087,-3.85625 7.1183,-7.85723 10.06829,-12.25814 1.04501,-1.66603 1.90002,-3.56078 1.85281,-5.56633 -0.0659,-1.91203 -0.9587,-3.6996 -2.14454,-5.16423 -1.63477,-2.19225 -3.36392,-4.31459 -4.9218,-6.56369 -0.93204,-1.28748 -1.89169,-2.5573 -2.89353,-3.79236 0.71135,-0.93158 1.31341,-1.94565 1.78973,-3.00787 3.06547,-5.7894 3.68581,-12.80323 1.76411,-19.05442 -0.95226,-3.56951 -2.30059,-7.06884 -4.26539,-10.20035 -0.72746,-0.69818 -1.71262,-1.29505 -2.76347,-1.19841 -1.41405,0.24043 -2.38565,1.41741 -3.30946,2.42048 -5.10494,5.59672 -10.19044,11.20814 -15.07084,16.9986 -0.15715,0.22357 -0.30616,0.45369 -0.44745,0.68987 -1.10257,-0.0939 -2.20759,-0.13297 -3.30945,-0.1222 -4.45433,0.0357 -8.936114,-0.0871 -13.367848,0.41195 -0.188803,-0.33825 -0.394239,-0.66555 -0.614977,-0.97962 -4.880404,-5.79046 -9.965904,-11.40188 -15.070884,-16.9986 -0.923799,-1.00307 -1.895362,-2.18005 -3.309446,-2.42048 -0.06568,-0.006 -0.13198,-0.009 -0.197104,-0.01 z"
       id="path2996-1"
       inkscape:connector-curvature="0" />
    <path
       style="fill:#0000ff;fill-opacity:1"
       d="m 298.80042,567.10224 c -4.7247,-2.14519 -6.45375,-4.5691 -6.45375,-9.04737 0,-3.80962 2.28945,-5.71493 6.71631,-5.58943 1.91294,0.0542 3.46066,-0.20008 3.43939,-0.56508 -0.0211,-0.36504 -1.80122,-1.88171 -3.95545,-3.37038 -2.54506,-1.75876 -4.94136,-4.79339 -6.84251,-8.66522 -2.56484,-5.22349 -2.91389,-7.03143 -2.82936,-14.65543 l 0.0964,-8.69689 -3.3821,0.39483 c -2.80894,0.32793 -3.57761,-0.0344 -4.53592,-2.13757 -1.74562,-3.83119 0.96633,-8.46809 10.0584,-17.19793 12.30869,-11.8183 14.48753,-14.72363 14.48753,-19.31818 0,-3.63121 -0.89135,-4.93391 -10.22268,-14.94027 -5.62247,-6.02921 -10.48714,-11.98678 -10.81039,-13.23905 -0.37948,-1.47024 0.77333,-5.17715 3.25413,-10.46364 l 3.84182,-8.1868 -2.42483,-5.17715 c -1.60412,-3.42487 -2.41059,-6.95668 -2.38277,-10.43485 0.0498,-6.21716 4.19327,-17.31109 6.64171,-17.78261 1.04301,-0.20087 4.98312,3.45524 10.60881,9.84413 l 8.94952,10.16366 8.75245,-0.40802 8.75245,-0.40803 8.54224,-9.7049 c 4.69827,-5.33771 9.20002,-9.70491 10.00396,-9.70491 0.80391,0 2.66584,2.63021 4.13757,5.8449 3.50744,7.66127 3.73425,16.24836 0.59549,22.54671 l -2.21007,4.43482 4.52339,6.14456 c 2.48785,3.37952 4.79959,7.24518 5.13721,8.59038 0.75006,2.98839 -1.92199,7.24333 -11.20964,17.85024 -11.9,13.59031 -11.68143,16.30259 2.50386,31.06862 12.81709,13.34184 16.62977,20.51305 12.65835,23.80902 -1.43962,1.1948 -3.03504,1.0945 -6.68203,-0.42011 -1.35809,-0.56401 -1.52007,0.31273 -1.15601,6.25584 0.23282,3.80146 0.60903,7.11242 0.83596,7.35766 0.6178,0.66768 6.12386,-5.9334 9.30041,-11.15 4.31778,-7.09079 3.83099,-15.53422 -1.73111,-30.0255 -5.51364,-14.36497 -6.05486,-18.97538 -2.93655,-25.01597 3.17603,-6.15242 7.89181,-9.18317 14.28884,-9.18317 8.80773,0 14.75964,4.94101 17.4849,14.51516 6.73129,23.64779 -1.27944,51.8663 -17.99133,63.37624 -5.20248,3.58308 -17.37913,8.76089 -20.603,8.76089 -0.79528,0 -3.27822,1.94968 -5.51767,4.3326 -4.06762,4.32825 -4.06937,4.33367 -1.7144,5.35208 3.89657,1.68509 5.71246,3.68053 5.71246,6.27731 0,6.64767 -7.86855,11.10417 -18.27651,10.35132 -7.65332,-0.55359 -10.26775,-2.62154 -10.26775,-8.12142 0,-3.68116 -0.18738,-3.91974 -3.07775,-3.91974 -2.74948,0 -3.01149,0.26397 -2.45656,2.47501 0.91885,3.66095 -0.35664,6.53084 -3.66228,8.24028 -4.06062,2.09981 -12.85213,1.87669 -17.99115,-0.45664 l 0,0 z"
       id="path3276"
       inkscape:connector-curvature="0" />
    <path
       style="fill:#ffffff;fill-opacity:1"
       d="m 308.03008,436.59842 c -0.24239,0.19821 -0.0125,0.51329 -0.0174,0.76288 0.42479,2.13178 1.53844,4.09369 3.05108,5.64287 0.7011,0.77621 1.46466,1.4931 2.25069,2.18225 -2.73571,0.6489 -5.41312,1.82777 -7.46956,3.78392 -0.78351,0.78507 -1.50991,1.71693 -1.74097,2.8221 0.14121,0.38922 0.71736,0.33537 0.92653,0.037 1.89341,-1.31847 3.90181,-2.58308 6.17864,-3.10168 2.45833,-0.58155 5.0157,-0.78768 7.38197,-1.71414 0.31372,-0.10864 0.64522,-0.23867 0.81625,-0.54438 0.42041,-0.66594 0.092,-1.6791 -0.66844,-1.91845 -2.36333,-1.28992 -4.86326,-2.42187 -6.88091,-4.24405 -1.29661,-1.20303 -2.32612,-2.69388 -3.79446,-3.7083 -0.0111,-6.1e-4 -0.0227,-0.005 -0.0335,0 z"
       id="path3119-27"
       inkscape:connector-curvature="0" />
    <path
       inkscape:connector-curvature="0"
       style="fill:#ffffff;fill-opacity:1"
       d="m 427.3739,420.44983 c -0.95729,0.62986 -1.70851,1.51536 -2.63779,2.18241 -1.15967,0.9131 -2.47885,1.59857 -3.83752,2.1632 -2.08193,0.96579 -4.25575,1.77596 -6.18004,3.0442 -0.63188,0.69947 -0.20586,2.00031 0.71506,2.19497 2.80631,1.19354 5.37838,2.85401 8.08444,4.2537 0.9813,0.52478 1.92179,1.12379 2.79945,1.80796 0.27261,0.18232 0.54668,0.42602 0.87506,0.47502 0.42413,-0.10181 0.53153,-0.67827 0.29772,-1.0034 -0.34575,-1.17654 -0.90914,-2.36208 -1.92442,-3.10162 -0.89632,-0.69851 -1.82281,-1.35722 -2.72601,-2.04677 -0.73817,-0.5463 -1.48076,-1.08479 -2.2366,-1.60638 -0.005,-0.20942 0.29342,-0.18273 0.39675,-0.32516 1.65784,-1.04809 3.23198,-2.23348 4.68498,-3.55074 1.0924,-1.14268 1.90734,-2.63128 1.97867,-4.2351 -0.0269,-0.13195 -0.13951,-0.27944 -0.28975,-0.25229 z"
       id="path3119-2-0" />
    <path
       style="fill:#ffffff;fill-opacity:1"
       d="m 320.38234,451.26721 c -0.84919,0.0652 -1.35154,1.15029 -0.92077,1.86451 0.33509,0.5382 0.69127,1.06905 0.96544,1.64563 0.43355,0.85188 0.78857,1.75766 1.35478,2.53121 0.45079,0.4731 1.36026,0.35062 1.62221,-0.26609 0.36374,-0.58503 0.46273,-1.29289 0.83669,-1.87331 0.34707,-0.67081 0.90394,-1.20753 1.27265,-1.86118 0.25579,-0.58871 0.098,-1.41762 -0.52662,-1.70808 -0.67849,-0.35934 -1.4711,-0.1847 -2.20594,-0.26504 -0.79938,-0.0289 -1.5982,-0.0833 -2.39844,-0.0677 z"
       id="path3160-9"
       inkscape:connector-curvature="0" />
    <path
       style="fill:#ffffff;fill-opacity:1"
       d="m 336.90468,436.95015 c 0.24239,0.1982 0.0125,0.51328 0.0175,0.76287 -0.4248,2.13178 -1.53845,4.09369 -3.05108,5.64287 -0.70114,0.77622 -1.4647,1.49311 -2.25072,2.18226 2.73573,0.64889 5.41314,1.82776 7.46958,3.78391 0.78352,0.78508 1.50991,1.71693 1.74097,2.82211 -0.1412,0.38921 -0.71736,0.33536 -0.92653,0.037 -1.8934,-1.31847 -3.90183,-2.58309 -6.17867,-3.10169 -2.45829,-0.58154 -5.01569,-0.78767 -7.38193,-1.71412 -0.31375,-0.10865 -0.64526,-0.23867 -0.81628,-0.54439 -0.42039,-0.66594 -0.0919,-1.6791 0.66846,-1.91845 2.36333,-1.28992 4.86327,-2.42187 6.88091,-4.24404 1.29661,-1.20304 2.32613,-2.69389 3.79447,-3.70831 0.011,-6.1e-4 0.0227,-0.005 0.0335,0 z"
       id="path3119-27-3"
       inkscape:connector-curvature="0" />
    <path
       sodipodi:type="arc"
       style="fill:#ffffff;fill-opacity:1"
       id="path3176"
       sodipodi:cx="678.82251"
       sodipodi:cy="1407.9359"
       sodipodi:rx="72.73098"
       sodipodi:ry="72.73098"
       d="m 751.55349,1407.9359 a 72.73098,72.73098 0 1 1 -145.46196,0 72.73098,72.73098 0 1 1 145.46196,0 z"
       transform="matrix(0.0420497,0,0,0.03854556,295.41676,474.24485)" />
    <path
       style="fill:#00ffff;fill-opacity:1"
       d="m 453.04609,560.61515 c -3.16984,-0.6748 -6.60022,-2.34006 -8.27934,-4.01918 -1.6032,-1.6032 -2.53618,-4.4963 -2.21224,-6.85982 0.4481,-3.26912 2.03387,-4.38813 6.67835,-4.71256 1.80358,-0.12599 3.09073,-0.38111 3.17254,-0.62885 0.0757,-0.22926 -0.63335,-1.04024 -1.57574,-1.80211 -5.21767,-4.2184 -7.92527,-7.63543 -9.99794,-12.6176 -1.48639,-3.57301 -1.69363,-5.21915 -1.68537,-13.38837 l 0.008,-7.73546 -2.64456,0.23965 c -1.50854,0.13671 -3.04606,0.087 -3.5792,-0.11571 -2.03935,-0.77537 -2.69799,-4.5389 -1.28439,-7.3389 1.4885,-2.9483 3.45064,-5.21698 12.3787,-14.31257 9.80157,-9.98551 11.23316,-11.90887 11.6113,-15.59984 0.38965,-3.80373 -0.83184,-5.92275 -7.8225,-13.57046 -5.70831,-6.24481 -9.46231,-10.56869 -11.31138,-13.02851 -2.57488,-3.42535 -2.34382,-4.78135 2.64937,-15.54771 l 2.62727,-5.66498 -1.65705,-3.71261 c -2.19387,-4.91545 -2.72827,-6.73794 -2.99102,-10.2009 -0.49922,-6.57909 3.83277,-19.26915 6.57788,-19.26915 0.85344,0 7.23595,6.39746 13.42892,13.4604 l 5.6401,6.43241 5.40639,-0.21922 c 2.97353,-0.12057 6.99538,-0.31981 8.93749,-0.44275 l 3.53108,-0.22353 5.45075,-6.16972 c 6.88736,-7.7958 11.95712,-12.83759 12.90882,-12.83759 1.75263,0 5.30943,7.53008 6.33175,13.40494 0.98497,5.66032 0.35336,9.82932 -2.38002,15.70966 l -1.55449,3.34415 1.14464,1.5216 c 2.6772,3.55888 7.93231,11.71273 8.3005,12.87903 0.89891,2.84771 -1.01908,6.06682 -9.87608,16.57559 -7.9952,9.48624 -9.54724,12.10902 -9.54666,16.13294 0,3.78906 2.05025,7.01324 9.67858,15.22412 8.63954,9.29933 11.46691,12.80403 13.76182,17.05861 2.17617,4.03451 1.99988,6.80461 -0.51885,8.15259 -0.80428,0.43044 -1.27424,0.44145 -2.84198,0.0666 -3.94842,-0.94401 -4.16454,-0.9395 -4.42352,0.0924 -0.24113,0.96065 0.43229,11.35457 0.79726,12.30568 0.11172,0.29111 0.40551,0.52929 0.65292,0.52929 0.59375,0 3.55489,-3.17655 5.79269,-6.21414 4.8718,-6.61295 6.12099,-9.90072 6.06099,-15.95206 -0.0566,-5.7131 -0.91471,-9.18952 -5.31509,-21.53324 -3.07335,-8.62118 -3.82169,-11.57792 -3.82169,-15.09942 0,-6.0976 3.93249,-12.48367 9.20205,-14.94346 4.17263,-1.94776 10.02331,-1.78792 14.46281,0.39511 6.87552,3.38088 10.71465,11.87478 11.60983,25.68632 1.18079,18.2178 -4.91298,36.02171 -15.89337,46.43513 -1.44247,1.36799 -3.51445,3.07531 -4.60444,3.79405 -4.39511,2.89819 -13.75952,7.0531 -18.38076,8.15544 -1.608,0.38355 -2.94564,1.01463 -4.26346,2.0114 -2.62785,1.98762 -6.18945,5.9416 -6.18841,6.87012 0,0.5576 0.54999,1.04553 2.07171,1.8401 2.61511,1.36543 4.59399,3.32742 4.90016,4.85824 0.64719,3.23587 -2.22666,7.49343 -6.25188,9.26211 -5.19296,2.28176 -13.31221,2.46834 -18.08409,0.41552 -2.44988,-1.05389 -3.40665,-2.76501 -3.74109,-6.69066 -0.13906,-1.63219 -0.43487,-3.10962 -0.65736,-3.28325 -0.65331,-0.50977 -2.56845,-0.76119 -4.0129,-0.52677 l -1.34104,0.21759 0.24055,2.75741 c 0.27095,3.10622 -0.0487,4.33976 -1.5314,5.90802 -2.71284,2.8696 -9.22274,3.91347 -15.74572,2.52489 l 0,0 z m 23.15738,-37.72188 c 1.40407,-1.2707 1.03852,-3.52955 -0.71819,-4.43798 -2.10811,-1.09013 -4.61285,0.1301 -4.67387,2.27696 -0.0436,1.53466 0.66136,2.5777 1.97634,2.92404 1.4537,0.38287 2.37762,0.17648 3.41572,-0.76302 z m -2.40077,-74.01979 c 0.31497,-0.63034 0.85197,-1.57231 1.19331,-2.09324 0.3413,-0.52093 0.57019,-1.38382 0.50856,-1.91752 -0.10808,-0.93584 -0.20605,-0.9768 -2.75252,-1.15059 -4.16883,-0.28453 -4.47429,0.25463 -2.33001,4.11257 1.52188,2.7381 2.40027,3.01062 3.38066,1.04878 l 0,0 z m 17.03464,-3.99354 c 0.0931,-0.15064 -0.0454,-0.78448 -0.30779,-1.40855 -0.65064,-1.54742 -3.71467,-3.8891 -6.34252,-4.84727 l -2.16929,-0.79095 1.62301,-1.65595 c 2.06976,-2.11174 4.32063,-6.88214 3.24727,-6.88214 -0.12008,0 -1.39281,1.0948 -2.82829,2.43288 -1.43548,1.33808 -4.0134,3.21824 -5.72871,4.17813 -2.49914,1.39853 -3.11871,1.90889 -3.11871,2.56895 0,1.26215 0.67373,1.59225 5.21142,2.55335 3.98162,0.84333 6.21927,1.71718 8.66498,3.38384 1.17672,0.80189 1.49029,0.88575 1.74863,0.46771 l 0,0 z m -31.97207,-2.62603 c 0.82173,-0.38757 2.76804,-0.95854 4.32513,-1.26882 4.31784,-0.86042 6.18981,-1.54542 6.44821,-2.35959 0.31816,-1.00247 -0.27802,-1.57901 -3.21598,-3.11004 -1.53045,-0.79757 -3.68942,-2.4016 -5.35676,-3.97988 -1.53614,-1.4541 -2.94337,-2.5509 -3.12715,-2.43731 -0.80097,0.49504 0.95585,4.29387 3.07664,6.65271 l 1.56621,1.74202 -1.7041,0.64031 c -3.70838,1.39341 -7.34866,4.68953 -6.78925,6.14734 0.19515,0.50861 0.41975,0.4613 1.7534,-0.36938 0.8413,-0.52398 2.20192,-1.26979 3.02365,-1.65736 l 0,0 z"
       id="path3320"
       inkscape:connector-curvature="0" />
  </g>
</svg>
