<?xml version="1.0" encoding="UTF-8" standalone="no"?>
<!-- Created with Inkscape (http://www.inkscape.org/) -->

<svg
   xmlns:dc="http://purl.org/dc/elements/1.1/"
   xmlns:cc="http://creativecommons.org/ns#"
   xmlns:rdf="http://www.w3.org/1999/02/22-rdf-syntax-ns#"
   xmlns:svg="http://www.w3.org/2000/svg"
   xmlns="http://www.w3.org/2000/svg"
   xmlns:sodipodi="http://sodipodi.sourceforge.net/DTD/sodipodi-0.dtd"
   xmlns:inkscape="http://www.inkscape.org/namespaces/inkscape"
   width="744.09448819"
   height="1052.3622047"
   id="svg3964"
   version="1.1"
   inkscape:version="0.48.4 r9939"
   sodipodi:docname="Новый документ 14">
  <defs
     id="defs3966" />
  <sodipodi:namedview
     id="base"
     pagecolor="#ffffff"
     bordercolor="#666666"
     borderopacity="1.0"
     inkscape:pageopacity="0.0"
     inkscape:pageshadow="2"
     inkscape:zoom="0.24748737"
     inkscape:cx="-13.507791"
     inkscape:cy="218.59742"
     inkscape:document-units="px"
     inkscape:current-layer="layer1"
     showgrid="false"
     inkscape:window-width="1366"
     inkscape:window-height="711"
     inkscape:window-x="0"
     inkscape:window-y="0"
     inkscape:window-maximized="1" />
  <metadata
     id="metadata3969">
    <rdf:RDF>
      <cc:Work
         rdf:about="">
        <dc:format>image/svg+xml</dc:format>
        <dc:type
           rdf:resource="http://purl.org/dc/dcmitype/StillImage" />
        <dc:title></dc:title>
      </cc:Work>
    </rdf:RDF>
  </metadata>
  <g
     inkscape:label="Layer 1"
     inkscape:groupmode="layer"
     id="layer1">
    <path
       style="fill:#00ff00"
       d="m -716.35807,1192.1057 c -1.7501,-1.7501 -1.7501,-1277.84993 0,-1279.60003 0.9317,-0.9317 226.25889,-1.2 1007.96482,-1.2 994.33535,0 1006.77755,0.024 1007.79995,1.9343 1.6002,2.99 1.436,1277.26493 -0.1648,1278.86573 -1.7507,1.7507 -2013.84917,1.7507 -2015.59997,0 z m 446.0997,-39.5129 c 2.6164,-1.4004 7.3053,-1.8391 25.7003,-2.4046 29.1392,-0.8958 44.4772,-3.5845 66,-11.5698 59.2485,-21.9821 104.785902,-72.0677 118.479102,-130.3127 4.8063,-20.44393 6.0271,-47.62533 3.0092,-67.00003 -9.3436,-59.9847 -45.167702,-109.7754 -98.041002,-136.2642 -61.0986,-30.6095 -136.4554,-18.1639 -184.1467,30.4127 -20.2325,20.6081 -32.9357,44.1137 -39.101,72.3515 -3.5269,16.1532 -3.6458,39.4241 -0.28381,55.5 11.17951,53.45653 48.4347,95.25363 97.5777,109.47393 11.7913,3.412 20.4686,4.5775 34.4989,4.6338 54.7599,0.2198 102.9443,-35.9724 115.5233,-86.77183 6.2033,-25.0518 3.4798,-48.4479 -8.4789,-72.8359 -14.2095,-28.9782 -38.7745,-48.8445 -67.9988,-54.992 -9.1043,-1.9151 -26.8538,-1.9399 -35.838,-0.05 -29.0777,6.1167 -52.0368,25.6327 -61.5837,52.3482 -2.9176,8.1643 -3.1061,9.5467 -3.0941,22.6939 0.012,12.7404 0.2646,14.7198 2.8113,22 9.1908,26.2744 30.1792,43.63563 54.6525,45.20723 27.0257,1.7356 50.2498,-17.13643 50.1539,-40.75543 -0.078,-19.0892 -14.8144,-34.9046 -28.8751,-30.9882 -7.0655,1.968 -8.4385,3.8175 -8.6524,11.6554 -0.329,12.0551 -6.7998,18.926 -17.6852,18.7788 -10.1098,-0.1368 -16.1893,-6.091 -18.1208,-17.7474 -3.2291,-19.4869 9.3976,-38.528 30.6695,-46.2493 32.0077,-11.6182 68.2186,10.561 77.0828,47.2134 2.5176,10.4098 2.324,26.0049 -0.4454,35.8855 -7.4464,26.56723 -30.0807,48.17133 -58.6133,55.94563 -8.245,2.2466 -27.3739,3.1223 -36.048,1.6503 -37.1343,-6.3015 -67.0176,-33.1472 -78.8222,-70.81023 -3.5342,-11.2758 -4.6134,-18.8144 -4.6221,-32.2857 -0.019,-30.393 11.7961,-57.3578 34.6584,-79.0954 22.882,-21.7564 51.6966,-33.1781 83.8339,-33.2305 63.3359,-0.1033 117.4906,46.2266 131.661202,112.6375 2.9372,13.7654 3.1623,40.9792 0.4441,53.6884 -8.206402,38.36913 -27.575302,68.85223 -58.105302,91.44743 -37.6264,27.8471 -87.5416,37.7568 -133,26.4046 -43.1329,-10.7714 -80.6485,-38.2987 -104.4113,-76.6123 -9.5468,-15.3926 -18.1163,-35.16363 -22.0895,-50.96343 l -1.0621,-4.2236 -10.7185,8.5233 c -36.4732,29.00343 -56.519,37.20463 -96.2093,39.36153 -36.2156,1.9681 -62.1429,-4.0451 -87.2345,-20.2319 -18.70929,-12.06953 -31.02489,-28.50103 -36.94379,-49.29033 -3.3468,-11.7556 -3.2964,-30.9673 0.1086,-41.365 4.5034,-13.7517 14.9324,-26.5755 28.13509,-34.5957 10.4212,-6.3305 21.007,-9.6023 32.9253,-10.1762 17.8703,-0.8605 30.1811,2.9314 38.5442,11.8723 7.484,8.001 9.2706,14.9852 5.5933,21.8649 -3.6794,6.8836 -10.0995,6.5017 -17.113,-1.018 -8.1487,-8.7368 -17.3285,-11.6766 -31.3953,-10.054 -22.0038,2.5381 -35.81269,14.0866 -38.76509,32.4198 -3.7223,23.113 18.00279,58.3655 44.13589,71.6179 18.3773,9.31933 43.7333,11.18073 67.5012,4.95533 18.9908,-4.97423 46.6714,-17.82233 61.6833,-28.63073 10.7787,-7.7606 23.192,-21.0575 29.2534,-31.3357 4.7738,-8.095 4.9814,-8.7733 6.2498,-20.4217 4.8296,-44.355 22.1285,-81.0564 52.6575,-111.7181 14.7201,-14.7843 36.1115,-29.9867 52.617,-37.3939 l 6.4032,-2.8736 -6.1392,-1.2426 c -20.1778,-4.0839 -29.9615,-18.4251 -22.6202,-33.1573 1.4334,-2.8763 3.6102,-5.987 4.8375,-6.9127 2.2073,-1.6651 2.1066,-1.7522 -9.3561,-8.0933 -24.4754,-13.5397 -33.6138,-21.3132 -39.5662,-33.6571 -7.5279,-15.6109 -8.3214,-25.0786 -5.5973,-66.7871 1.1419,-17.483 2.0761,-31.9636 2.0761,-32.1791 0,-0.2155 -2.3625,-1.0806 -5.25,-1.9225 -6.845,-1.9956 -22.155,-9.4825 -30.7172,-15.0214 -3.7276,-2.4114 -9.9229,-7.3516 -13.7673,-10.9782 l -6.9899,-6.594 -2.1646,6.7412 c -9.8649,30.723 -38.3383,65.4261 -66.111,80.5756 -16.9564,9.2494 -40.1769,10.6427 -59.7527,3.5852 -20.0153,-7.2158 -36.1295,-20.3959 -43.3047,-35.4197 -8.28509,-17.3478 -7.7779,-33.2938 1.6676,-52.4286 8.5547,-17.3303 24.2117,-29.5204 37.7418,-29.3847 7.3527,0.074 12.4585,2.1109 16.0813,6.4164 3.3459,3.9764 3.1708,8.4134 -0.4333,10.9784 -2.1664,1.5418 -3.1819,1.6325 -7.6107,0.6799 -9.1337,-1.9646 -17.9797,2.0903 -25.9857,11.9115 -6.5613,8.049 -8.8262,14.9005 -8.8683,26.8271 -0.032,9.1553 0.2275,10.5546 3.0753,16.5644 3.6039,7.6054 13.0921,18.253 20.5036,23.0089 13.0862,8.3974 31.2501,11.1382 46.3858,6.9993 14.4672,-3.9562 29.6577,-13.6963 40.104,-25.7146 14.2514,-16.3962 26.0864,-40.2024 31.8502,-64.0668 l 1.741,-7.2088 -3.7239,-7.7912 c -14.3378,-29.9975 -23.2306,-60.1094 -27.4035,-92.7912 -7.7027,-60.3267 -9.6208,-90.1173 -6.5592,-101.8716 0.8297,-3.1854 1.1992,-6.3175 0.8212,-6.96 -0.3781,-0.6426 -3.9059,-4.7684 -7.8396,-9.1684 -14.4857,-16.203 -41.7055,-52.8234 -82.3574,-110.8006 -38.14389,-54.4002 -52.25359,-75.809 -64.55469,-97.9494 -2.0626,-3.7125 -3.9365,-6.75 -4.1642,-6.75 -0.2276,0 -0.4139,237.6 -0.4139,528 l 0,528.00003 188.04969,0 c 175.6316,0 188.261,-0.1131 191.25,-1.7129 z m 1477.13197,-2.4569 c -2.488,-2.2933 -6.1104,-7.0071 -8.0498,-10.475 -4.7575,-8.5073 -17.1859,-38.8445 -28.9543,-70.6766 -26.7984,-72.48633 -33.178,-88.68103 -34.9276,-88.66373 -1.8882,0.019 -28.0142,22.79583 -47,40.97533 -30.8524,29.5423 -47.6329,38.9521 -69.5399,38.995 -12.3548,0.024 -25.20375,-4.2353 -40.84895,-13.5418 -10.7826,-6.4139 -20.7923,-15.7646 -32.2713,-30.1467 l -9.3399,-11.7019 -0.7432,6.9526 c -1.8576,17.3767 -11.3971,31.5553 -24.5389,36.4723 -14.4585,5.4096 -30.7352,0.4873 -44.7179,-13.5233 -16.1174,-16.1496 -25.7622,-43.13283 -25.7342,-71.99643 0.022,-22.296 3.9981,-33.3233 16.1447,-44.7707 28.9125,-27.2484 67.2476,-31.3626 93.5072,-10.0354 11.909,9.672 17.1604,21.0563 16.9781,36.8061 -0.1662,14.363 -6.0465,26.2774 -17.4623,35.3809 l -5.4936,4.3809 17.8577,17.61913 c 27.8494,27.4773 39.48945,34.2971 58.47995,34.2632 9.8686,-0.018 17.8625,-2.5076 26.8044,-8.3493 9.6148,-6.2812 14.8963,-11.0953 47.5715,-43.36213 l 28.6533,-28.2952 -3.7911,-6.4876 c -9.4643,-16.1959 -22.0782,-33.4543 -45.4241,-62.1499 -61.4579,-75.5408 -102.37605,-118.7523 -144.09155,-152.1677 -11.028,-8.8337 -34.8557,-26.4124 -38,-28.034 -3.4708,-1.7901 -17.0159,-2.4147 -28.2101,-1.3008 -36.4362,3.6257 -66.6934,19.0044 -94.974,48.272 -14.0506,14.541 -22.5412,29.1984 -27.4968,47.468 -3.0626,11.2912 -3.0982,34.2629 -0.072,46.3798 5.811,23.266 19.4317,44.3926 33.0599,51.2779 20.9619,10.5906 47.2247,0.2707 58.8828,-23.1378 3.8641,-7.759 4.4191,-11.998 2.9139,-22.2574 -0.7109,-4.8458 -0.5483,-5.827 1.3672,-8.25 2.8192,-3.566 6.8515,-3.6115 10.996,-0.1242 4.8733,4.1006 7.3025,9.8206 7.8035,18.3742 1.1827,20.1938 -13.9735,40.6468 -38.8879,52.4786 -14.657,6.9606 -31.2969,8.4459 -44.5977,3.981 -9.2906,-3.1188 -16.2318,-7.6263 -23.5362,-15.2842 -27.8966,-29.2467 -36.611,-81.2165 -20.2472,-120.7474 13.691,-33.0738 39.4891,-60.8475 70.9985,-76.4353 19.3248,-9.5601 35.6206,-14.0189 56.9999,-15.5959 l 10,-0.7377 -8,-3.7718 c -4.4,-2.0745 -12.05,-4.7969 -17,-6.0499 -8.478,-2.1459 -10.9715,-2.2798 -42.9999,-2.3077 -18.7,-0.016 -49.6812,0.1007 -68.8471,0.2599 l -34.8471,0.2897 -10.1529,5.0811 c -21.5497,10.7847 -43.1362,25.2773 -77.1529,51.7984 -12.1,9.4338 -25.825,19.7085 -30.5,22.8328 -21.0473,14.0657 -43.0634,22.1737 -60.2832,22.2009 -8.7242,0.014 -20.546,7.7993 -35.3346,23.2704 -17.5151,18.3236 -29.6702,40.1138 -37.2376,66.7553 -4.8719,17.1522 -5.6471,23.6369 -5.616,46.9818 0.025,18.4276 0.3355,22.8022 2.1757,30.6124 6.0693,25.7599 18.8215,44.9888 38.3813,57.87493 14.3762,9.4711 25.1581,12.902 38.8316,12.3569 7.3001,-0.291 9.6473,-0.8437 15.2001,-3.5791 15.96,-7.8621 26.1947,-22.98443 28.9467,-42.76993 1.973,-14.1856 -2.3281,-28.6343 -10.1344,-34.044 -4.6656,-3.2332 -5.9357,-5.1951 -5.9143,-9.1355 0.018,-3.375 0.7716,-4.641 3.669,-6.166 8.7717,-4.6171 21.8856,4.2911 27.379,18.5982 4.235,11.0298 3.742,32.2215 -1.0993,47.2521 -10.1567,31.53323 -31.683,48.73143 -58.3715,46.63533 -28.5915,-2.2456 -55.1681,-16.799 -72.4325,-39.66393 -8.4247,-11.1576 -14.9393,-23.4334 -19.247,-36.2682 l -3.6237,-10.7968 -3.3202,3.7968 c -4.8609,5.5586 -12.5353,10.992 -18.1681,12.8629 -7.0117,2.3289 -18.7625,1.6551 -25.0872,-1.4385 -11.1876,-5.4722 -22.9687,-20.2032 -28.7993,-36.0105 -2.594,-7.0325 -3.2646,-10.548 -3.6466,-19.1171 -0.4041,-9.0654 -0.1719,-11.284 1.6996,-16.2386 6.7969,-17.9939 27.7845,-23.2229 35.8206,-8.9246 2.5839,4.5974 2.8768,10.3555 0.6405,12.5918 -2.3981,2.3981 -3.8053,1.9305 -7.3084,-2.4286 -2.5853,-3.2171 -3.8639,-4 -6.5325,-4 -6.9656,0 -11.5964,6.6879 -11.5758,16.7179 0.034,16.3498 10.05,34.0511 22.2341,39.2926 10.9543,4.7124 26.9643,0.5764 37.6545,-9.7276 l 5.0995,-4.9152 0,-9.4601 c 0,-30.2519 9.954,-66.0515 25.6429,-92.2247 10.1156,-16.8754 30.8976,-39.8027 43.1071,-47.557 2.8875,-1.8339 5.25,-3.4944 5.25,-3.6899 0,-0.1956 -3.0286,-1.291 -6.7302,-2.4343 -13.6542,-4.2175 -31.5692,-11.1561 -63.2696,-24.505 -34.0182,-14.3249 -54.0006,-22.4967 -55.0112,-22.4967 -0.3289,0 -0.4077,5.3383 -0.175,11.8629 1.0426,29.2441 -10.1587,51.3567 -31.2692,61.7285 -7.8599,3.8617 -8.0882,3.9074 -19,3.8019 -12.3669,-0.1195 -17.8672,-1.6241 -29.4443,-8.0548 -9.26282,-5.1452 -25.16742,-21.3975 -31.18272,-31.8647 -9.6059,-16.7152 -14.6163,-31.6409 -19.4729,-58.0085 -0.3154,-1.7125 -1.6885,-0.7622 -8.6693,6 -9.3208,9.0289 -17.5126,13.6275 -28.8274,16.1827 -20.5488,4.6405 -40.5915,-8.8248 -46.4151,-31.1829 -1.7377,-6.6716 -1.9825,-20.8027 -0.4738,-27.347 0.5557,-2.4101 0.8635,-4.5288 0.684,-4.7083 -0.1795,-0.1795 -17.8576,5.4717 -39.2847,12.5581 -52.231498,17.2741 -63.773598,20.0485 -83.280798,20.019 -27.2593004,-0.041 -56.7734,-14.2314 -75.1766,-36.1444 -14.6899,-17.4915 -26.2265,-40.6266 -49.361,-98.9865 -17.833302,-44.9871 -18.925502,-47.3791 -32.580402,-71.356 -5.0116,-8.8 -9.6266,-17.162 -10.2556,-18.5821 -1.0827,-2.4446 -1.7604,-2.6473 -12.7238,-3.805 -7.5867,-0.8012 -24.857,-1.1309 -50.0802,-0.9562 -32.9013,0.2279 -40.1723,0.01 -50,-1.5169 -26.7938,-4.1557 -47.0102,-10.4304 -93,-28.865 -52.3401,-20.9801 -62.1308,-27.4822 -101.0774,-67.1268 l -23.5775,-24 -1.8185,23.6431 c -3.9343,51.1516 -0.3514,75.4185 17.4607,118.2594 9.879,23.7607 18.268,37.1363 29.7528,47.4389 5.5422,4.9716 10.8509,8.3358 34.7599,22.0277 6.05,3.4646 12.6288,7.6063 14.6196,9.2037 l 3.6196,2.9044 11.3804,-2.1127 c 6.2592,-1.162 18.1304,-3.4915 26.3804,-5.1768 13.8291,-2.825 15.5758,-2.9767 22.3763,-1.9435 21.204,3.2212 33.575,20.1487 40.6393,55.6078 1.7167,8.6168 3.4844,13.1506 3.4844,8.9367 0,-1.0799 1.5526,-4.2689 3.4503,-7.0867 4.4528,-6.6121 10.432,-9.6925 18.663,-9.6149 19.3451,0.1822 35.0267,22.9181 33.6345,48.7649 -0.9098,16.8896 -5.7475,25.9471 -16.853,31.5532 -20.1398,10.1665 -44.3748,6.9176 -58.52,-7.8452 -6.0282,-6.2913 -8.3748,-11.5333 -8.3748,-18.708 0,-10.2127 6.5059,-19.3666 15.9886,-22.4962 2.2063,-0.7281 4.0114,-1.4992 4.0114,-1.7135 0,-0.2143 -0.6224,-1.6047 -1.3831,-3.0899 -0.7607,-1.4852 -3.5167,-8.7754 -6.1244,-16.2004 -2.6077,-7.425 -6.286,-16.4802 -8.1739,-20.1228 -4.035,-7.785 -11.1782,-15.3943 -16.8611,-17.9612 -9.1374,-4.1274 -15.1337,-3.5986 -40.4575,3.5676 -8.525,2.4125 -17.1461,4.6829 -19.1579,5.0454 l -3.658,0.6591 -0.6707,7.156 c -0.3689,3.9357 -2.0378,15.2559 -3.7087,25.1559 -4.1511,24.5949 -3.177,35.7755 4.4388,50.9485 4.7275,9.4188 11.6099,15.3156 26.9415,23.0835 7.3233,3.7104 14.5095,7.5836 15.96939,8.6071 3.5022,2.4553 4.8408,2.3483 4.86761,-0.3891 0.065,-6.631 7.62109,-15.7238 14.70069,-17.6898 5.4775,-1.5212 8.5202,-1.3154 14.69141,0.9936 15.17369,5.6772 25.91449,25.5587 24.2881,44.958 -0.7248,8.6459 -2.4447,12.628 -7.5392,17.4555 -2.26741,2.1486 -3.9521,4.077 -3.7437,4.2854 0.20829,0.2083 2.2646,-0.129 4.5695,-0.7496 17.157,-4.6199 50.0514,-6.3127 69.0112,-3.5515 44.1392,6.4284 78.7126,22.7547 112.289702,53.0258 23.2527,20.9633 45.8622,54.7266 56.2654,84.0226 0.9765,2.75 2.1016,5.378 2.5002,5.8401 0.3986,0.462 2.11269,-1.1774 3.8091,-3.643 9.7885,-14.2271 56.5087,-46.0843 78.86539,-53.7761 17.944,-6.1737 34.84121,-8.4279 62.770198,-8.3739 19.6285,0.038 24.641,0.3704 34.1946,2.2683 42.7245,8.4874 73.9713,30.9575 85.2652,61.3157 13.46991,36.2071 -0.249,69.3689 -35.2977,85.323 -27.8602,12.6818 -62.0604,8.2398 -74.0898,-9.6229 -4.6332,-6.8799 -5.0222,-13.9546 -1.0284,-18.701 1.39921,-1.6628 3.4312,-3.3049 4.5157,-3.6491 3.1024,-0.9847 8.2737,1.231 12.0125,5.1468 10.1439,10.6241 26.1698,14.0417 44.2097,9.4279 8.9885,-2.2989 12.4587,-3.9501 19.3611,-9.2127 20.62731,-15.7268 16.9187,-45.9871 -9.1451,-74.6194 -26.9437,-29.599 -73.3846,-35.4405 -123.497798,-15.534 -27.3819,10.8769 -45.6782,21.8709 -59.5138,35.761 -9.8352004,9.874 -15.4426004,18.3298 -25.2316,38.0493 l -5.957,12 -0.028,17 c -0.042,25.7894 -2.8582,43.91083 -10.4877,67.48453 -14.6948,45.4047 -45.8106,86.1739 -87.196502,114.2486 l -9.9753,6.7669 669.17243,0 669.17245,0 -4.5236,-4.1698 z m 25.5683,-544.02723 0,-404.197 -3.1693,4.447 c -7.2194,10.1299 -14.6622,16.4083 -26.4857,22.3421 -14.4307,7.2423 -31.2645,9.3339 -45.6041,5.6665 -13.7323,-3.5121 -20.8994,-8.7976 -25.4713,-18.784 -3.0849,-6.7382 -2.4937,-11.2535 2.071,-15.8182 4.6424,-4.6424 8.2122,-3.8331 15.4908,3.5115 7.3875,7.4546 13.942,10.0339 25.4561,10.0172 13.9366,-0.02 25.4215,-4.268 34.0895,-12.6084 6.6542,-6.4028 9.7255,-13.4388 10.3561,-23.7242 0.4473,-7.2965 0.1566,-9.1878 -2.7594,-17.9555 -8.8479,-26.603 -28.9184,-47.2049 -53.303,-54.7144 -10.113,-3.1144 -20.3167,-4.2813 -32.1707,-3.679 -19.7067,1.0013 -36.4075,5.855 -59.5049,17.2941 -17.6185,8.7255 -28.1061,15.6149 -37.8854,24.887 -8.6828,8.2325 -13.2897,14.2268 -18.8392,24.5123 -3.6472,6.7599 -4.1116,8.4374 -4.706,17 -1.7722,25.5305 -11.56845,55.31 -25.70835,78.1505 -20.5079,33.1271 -53.0034,60.7234 -88.7508,75.3703 l -5.3946,2.2103 5.3946,1.2714 c 22.4202,5.2838 30.567,23.2225 17.5492,38.6419 -2.9372,3.4791 -3.2327,4.3556 -1.4683,4.3556 1.5009,0 19.0912,9.8908 28.3137,15.9203 17.5115,11.4489 26.1887,26.8079 28.0106,49.5797 0.378,4.7257 -0.2085,20.8927 -1.4332,39.5 -1.1402,17.325 -2.0741,31.8056 -2.0753,32.1791 0,0.3734 2.3604,1.3678 5.2479,2.2096 6.845,1.9957 22.155,9.4826 30.71725,15.0215 3.7276,2.4113 9.9229,7.3515 13.7673,10.9782 l 6.9899,6.5939 2.1646,-6.7411 c 10.5924,-32.9887 45.5064,-73.3782 72.0151,-83.3092 13.995,-5.243 31.0038,-6.8306 43.0959,-4.0226 24.5018,5.6897 46.3359,21.4455 54.5036,39.3306 7.7967,17.0726 7.1484,32.9251 -2.1138,51.6887 -9.8737,20.0024 -28.0219,32.1579 -43.2822,28.9899 -7.3884,-1.5339 -13.4088,-7.1324 -12.9247,-12.0192 0.1987,-2.0062 1.2505,-3.8907 2.8171,-5.0472 2.1395,-1.5794 3.0705,-1.6868 6.4564,-0.7448 8.0662,2.244 17.5989,-1.2518 25.0052,-9.1697 11.6405,-12.4447 14.8313,-31.1668 7.8532,-46.0787 -3.5214,-7.525 -13,-18.1651 -20.429,-22.9323 -13.0862,-8.3974 -31.2501,-11.1382 -46.3858,-6.9992 -29.389,8.0365 -52.6155,33.4818 -66.8868,73.2764 -1.8336,5.1129 -4.1156,12.5401 -5.0711,16.5049 l -1.7373,7.2088 3.6274,7.6422 c 14.7836,31.1456 23.2997,59.9217 27.5051,92.9402 7.7141,60.5667 9.6154,90.1187 6.5541,101.8716 -0.8297,3.1854 -1.1992,6.3175 -0.8212,6.9601 0.3781,0.6426 3.8968,4.7683 7.8195,9.1683 14.0499,15.7598 39.0322,49.1905 75.696,101.295 41.6046,59.1259 58.7934,85.0538 71.2369,107.45503 2.0622,3.7125 3.9358,6.75 4.1635,6.75 0.2276,0 0.4139,-181.88863 0.4139,-404.19703 z m -694.99995,149.4876 c 15.5809,-4.2516 32.2592,-13.4492 48.5,-26.7465 9.0636,-7.4209 38.7216,-35.6558 38.1028,-36.2746 -0.2613,-0.2613 -3.3163,0.4524 -6.7889,1.586 -27.7584,9.0611 -58.7973,9.0437 -86.8139,-0.048 -8.5633,-2.7791 -24.7606,-10.4103 -33.4812,-15.7743 -25.3651,-15.6022 -41.3705,-35.6882 -49.8762,-62.5919 -4.3963,-13.9059 -5.1219,-19.1325 -5.0586,-36.4408 0.049,-13.5038 0.4603,-18.1154 2.2631,-25.3958 8.7469,-35.3233 26.5662,-54.2044 54.4567,-57.7016 13.0231,-1.633 28.4722,1.3452 41.1238,7.9275 15.0294,7.8193 24.3538,20.3091 25.3166,33.9109 0.6165,8.7089 -0.9427,14.4068 -4.8398,17.686 -6.9025,5.808 -12.8733,1.0771 -12.9264,-10.2421 -0.031,-6.5863 -3.0267,-12.4437 -9.59,-18.7499 -23.5698,-22.6469 -59.5083,-16.971 -72.5202,11.4533 -6.0652,13.2494 -7.2288,19.6966 -7.2393,40.1117 -0.01,17.2997 0.1677,19.0839 2.7208,27.5 10.1587,33.4878 32.2842,56.5365 68.1227,70.9654 25.783,10.3805 53.0249,12.9355 79.7816,7.4829 27.0033,-5.5029 41.1263,-14.7709 62.064,-40.7285 l 7.4855,-9.2802 -1.2797,-4.7198 c -0.7038,-2.5959 -4.442,-15.5198 -8.307,-28.7198 -3.865,-13.2 -9.1137,-31.65 -11.6637,-41 -13.2942,-48.7459 -22.5205,-72.3558 -35.3654,-90.5001 -15.8084,-22.3303 -38.5786,-37.014 -63.6764,-41.0627 -15.2097,-2.4536 -35.2858,0.5367 -87.294,13.0026 -13.9058,3.3331 -25.5618,6.0601 -25.9023,6.0601 -0.3405,0 1.8435,2.5875 4.8532,5.75 9.5807,10.067 13.8424,19.9906 13.8203,32.1815 -0.04,22.1336 -14.2594,39.6777 -38.6332,47.6663 -8.1552,2.6729 -9.9612,2.8946 -22.8549,2.8057 -12.1745,-0.084 -15.1735,-0.4502 -23,-2.8089 -20.4914,-6.1755 -42.0149,-21.799 -48.9744,-35.5495 -1.2652,-2.4998 -2.8524,-6.5701 -3.5272,-9.0451 -0.6747,-2.475 -1.3959,-5.0875 -1.6025,-5.8055 -0.2355,-0.8182 -2.9612,0.9198 -7.3023,4.6561 -15.5727,13.403 -29.5804,20.9974 -48.59362,26.3457 -11.6438,3.2753 -34.5695,3.298 -45.7915,0.045 -23.8209,-6.9044 -43.1522,-23.1498 -50.8606,-42.7417 -2.6185,-6.6554 -3.2267,-9.7767 -3.6188,-18.5717 -0.522,-11.7097 0.4413,-17.7431 4.4375,-27.7927 4.9752,-12.5114 14.7602,-24.0974 26.4401,-31.3066 5.3002,-3.2715 5.3415,-3.3334 2.3933,-3.585 -12.1121,-1.0338 -22.1675,-4.403 -54.5,-18.2613 -23.6117,-10.1203 -36.7837,-14.8582 -49.499998,-17.8047 -38.011,-8.8077 -65.913,-1.6817 -99.9339004,25.5228 -9.2779996,7.419 -39.8639996,36.3347 -39.1688996,37.0298 0.2613,0.2612 3.3163,-0.4525 6.7889,-1.586 31.4971996,-10.2815 66.6792,-8.742 97.4979,4.2665 37.783898,15.9484 61.338398,39.6105 72.258898,72.5889 9.5907,28.9625 7.5798,60.9354 -5.5033,87.5001 -14.1946,28.8217 -41.414498,40.0908 -74.439598,30.8183 -14.5687,-4.0905 -28.6357,-14.7704 -34.1152,-25.9007 -5.601,-11.3773 -5.0434,-25.5821 1.2108,-30.8446 6.9025,-5.8081 12.8733,-1.0772 12.9264,10.2421 0.03,6.5125 3.0007,12.4039 9.4064,18.658 10.6226,10.3709 26.4871,15.7862 40.0575,13.6735 14.7176,-2.2913 24.792298,-9.9345 31.954998,-24.2427 6.5905,-13.1652 8.0742,-20.9534 7.9827,-41.9039 -0.07,-16.0483 -0.3021,-18.2467 -2.7968,-26.5001 -10.1041,-33.4292 -32.289298,-56.5483 -68.098798,-70.9655 -32.1532,-12.9451 -68.5426,-13.6682 -98.8482,-1.9642 -15.9088,6.1441 -26.642,14.9333 -42.9974,35.2099 l -7.4855,9.2801 1.2797,4.7199 c 0.7038,2.5959 4.442,15.5198 8.307,28.7198 3.865,13.2001 9.1137,31.6501 11.6637,41.0001 13.2943,48.7458 22.5205,72.3557 35.3654,90.5 15.7108,22.1924 38.20879963,36.7796 63.2578,41.0149 15.335,2.5928 34.7536,-0.2763 87.712598,-12.9598 13.9058,-3.3303 25.5618,-6.0552 25.9023,-6.0552 0.3405,0 -1.8435,-2.5875 -4.8532,-5.75 -9.5807,-10.067 -13.8424,-19.9905 -13.8203,-32.1815 0.04,-22.1335 14.2594,-39.6776 38.6332,-47.6663 8.1552,-2.6728 9.9612,-2.8945 22.8549,-2.8056 12.1745,0.084 15.1735,0.4502 23,2.8089 10.8222,3.2615 21.4463,8.7969 31.2753,16.2951 12.0327,9.1792 18.2868,17.5174 21.2263,28.2994 0.6747,2.475 1.3959,5.0875 1.6025,5.8055 0.2355,0.8182 2.9612,-0.9197 7.3023,-4.656 23.83952,-20.518 49.45082,-30.1611 76.59362,-28.8389 12.7093,0.6192 22.3251,3.0655 32.8159,8.3485 17.3433,8.734 29.8269,21.5676 35.8362,36.8409 2.6185,6.6555 3.2267,9.7768 3.6188,18.5717 0.5218,11.7049 -0.4403,17.7359 -4.4338,27.7927 -4.8742,12.2745 -14.8088,24.1703 -25.8371,30.9378 l -6,3.6819 6.0697,0.6776 c 10.9132,1.2184 21.5483,4.9507 54.4711,19.1165 46.0398,19.8096 72.2167,24.3097 98.9592,17.0124 z m 511.55825,-20.7906 c 3.8963,-50.3089 0.1558,-75.4757 -17.5456,-118.0505 -9.879,-23.7606 -18.268,-37.1363 -29.7528,-47.4388 -5.54225,-4.9716 -10.85095,-8.3358 -34.75995,-22.0277 -6.05,-3.4647 -12.6288,-7.6063 -14.6196,-9.2037 l -3.6196,-2.9044 -11.3804,2.1127 c -6.2592,1.1619 -18.1304,3.4915 -26.3804,5.1768 -13.7547,2.8097 -15.6028,2.9726 -22.2601,1.9616 -9.2263,-1.4011 -15.6162,-4.6504 -22.0338,-11.2042 -8.1124,-8.2846 -14.5792,-23.6287 -18.7217,-44.4218 -1.7167,-8.6168 -3.4844,-13.1506 -3.4844,-8.9367 0,1.0799 -1.5526,4.2689 -3.4503,7.0868 -4.433,6.5827 -10.6491,9.8273 -18.6517,9.7357 -19.264,-0.2207 -35.0329,-23.1322 -33.6457,-48.8858 0.9036,-16.7756 5.7688,-25.975 16.6133,-31.4135 20.2636,-10.1621 43.6704,-7.2648 58.1308,7.1956 6.5347,6.5347 9.0036,11.8045 9.0036,19.2179 0,10.2127 -6.5059,19.3667 -15.9886,22.4962 -2.2063,0.7282 -4.0114,1.4992 -4.0114,1.7135 0,0.2143 0.6224,1.6048 1.3831,3.09 0.7607,1.4851 3.5167,8.7753 6.1244,16.2003 5.9797,17.0261 10.3495,25.4717 16.2995,31.5018 7.87,7.9761 16.7733,10.7165 27.7543,8.5428 3.2663,-0.6466 12.9137,-3.1266 21.4387,-5.5113 8.525,-2.3846 17.143,-4.6172 19.1512,-4.9613 l 3.6512,-0.6256 0.6774,-7.2232 c 0.3726,-3.9728 2.0446,-15.3232 3.7155,-25.2232 2.4581,-14.5641 2.913,-19.5271 2.383,-26 -1.3314,-16.2592 -7.7442,-30.2358 -17.5451,-38.2395 -3.0067,-2.4554 -11.6335,-7.5536 -19.1705,-11.3293 -7.537,-3.7757 -13.991,-7.3298 -14.3422,-7.8981 -1.1706,-1.894 -3.52,-1.087 -3.5425,1.2169 -0.067,6.8494 -7.6991,15.79 -15.2045,17.811 -11.4826,3.0919 -26.0842,-4.9489 -32.7641,-18.0425 -2.8686,-5.6229 -6.0094,-18.2341 -6.0094,-24.1292 0,-11.1711 2.9504,-17.8897 10.4859,-23.8781 4.4191,-3.5118 4.448,-3.507 -8.2467,-1.3774 -13.7131,2.3005 -43.13,2.2869 -58.0897,-0.027 -54.6386,-8.4507 -102.7619,-38.3781 -136.8524,-85.1069 -9.8403,-13.4883 -20.3889,-33.0158 -26.3344,-48.75 -1.8185,-4.8125 -3.6027,-8.75 -3.965,-8.75 -0.3622,0 -2.0866,1.9884 -3.8319,4.4188 -7.6406,10.6394 -40.0562,34.6079 -62.4387,46.168 -21.5426,11.1264 -44.3755,15.7267 -78.227,15.7611 -29.8671,0.03 -50.2292,-4.1897 -72,-14.9221 -28.0965,-13.8508 -44.9912,-33.4029 -51.1409,-59.1849 -2.1311,-8.9345 -2.1261,-24.9047 0.01,-33.128 5.8473,-22.5065 27.0111,-40.8975 54.3277,-47.2098 7.8728,-1.8192 11.2592,-2.0827 20.6117,-1.6037 20.6741,1.0589 33.5332,7.6592 40.1655,20.6163 4.0488,7.91 -0.829,18.0843 -8.6702,18.0843 -3.2487,0 -4.7348,-0.8396 -9.914,-5.601 -8.4768,-7.7929 -13.1591,-9.6905 -25.1984,-10.2117 -5.4394,-0.2355 -12.5662,0.108 -16,0.7711 -14.592,2.8179 -28.6083,12.8569 -32.5099,23.2848 -4.8084,12.8518 -3.6807,22.1515 4.7702,39.3354 8.4186,17.1183 22.5254,31.5363 38.4837,39.3328 33.0977,16.1699 74.3618,12.0971 123.0642,-12.1465 30.2274,-15.0469 46.3657,-31.6343 61.7587,-63.4771 l 6.0906,-12.5992 -0.2381,-15.0943 c -0.7348,-46.6001 14.279,-92.5958 42.7555,-130.9835999 12.7444,-17.1803 33.9651,-37.7162001 51.3478,-49.6909001 l 7.142,-4.9198 -670.314918,0 -670.314902,0 4.5597,4.8746 c 7.2215,7.7204 16.9683,29.8984001 37.2129,84.6744 22.6799,61.3653 31.2489,83.3187 32.7004,83.7765 1.2766,0.4027 28.7148,-23.548 46.8007,-40.8521 25.69279,-24.5821 37.9152,-32.8731 55.4324,-37.602 16.9937,-4.5875 34.2869,-0.9074 55.7614,11.8665 10.4868,6.2381 20.58,15.6994 31.9663,29.9654 l 9.3399,11.7019 0.74319,-6.9526 c 1.8608,-17.4067 11.3747,-31.5235 24.6097,-36.5162 4.57021,-1.724 7.20871,-2.0513 13.8356,-1.7158 7.0074,0.3546 9.3083,0.9679 15.9536,4.2522 24.2853,12.0024 40.6286,45.431 40.5922,83.0272 -0.022,22.296 -3.9982,33.3233 -16.1447,44.7707 -28.9126,27.2484 -67.2477,31.3626 -93.5073,10.0355 -11.909,-9.6722 -17.1604,-21.0564 -16.9781,-36.8062 0.1662,-14.3641 6.0465,-26.2773 17.4646,-35.3827 l 5.4959,-4.3827 -17.2854,-17.0373 c -22.9746,-22.6446 -31.0079,-28.5885 -44.2793,-32.7624 -8.5301,-2.6827 -20.3476,-2.7493 -28.5819,-0.161 -7.0085,2.203 -17.2834,8.635 -25.9181,16.2245 -3.3,2.9005 -18.9423,18.0542 -34.7606,33.6749 l -28.7606,28.4012 6.7088,10.7127 c 11.1118,17.7435 22.513,33.0991 44.7067,60.2128 61.9006,75.623 100.7536,116.5434 142.1057,149.6677 11.4703,9.1881 34.7974,26.3592 38.5,28.34 1.7385,0.93 6.6124,1.332 16,1.3197 40.4582,-0.053 75.1986,-15.8775 106.6316,-48.5714 14.8901,-15.4875 23.3288,-30.373 28.0723,-49.5187 2.5589,-10.328 2.3226,-33.1799 -0.4586,-44.3546 -5.7852,-23.2441 -18.8411,-43.5584 -32.798,-51.0318 -20.6309,-11.0472 -47.3942,-0.6872 -59.1372,22.8918 -3.8642,7.759 -4.4191,11.9979 -2.914,22.2573 0.7109,4.8459 0.5483,5.8271 -1.3672,8.25 -2.8192,3.566 -6.8515,3.6116 -10.996,0.1242 -4.8733,-4.1005 -7.3025,-9.8206 -7.8035,-18.3742 -0.7053,-12.0426 3.668,-22.8884 13.818,-34.268 9.744,-10.9245 25.7837,-20.2515 39.9523,-23.2319 25.9445,-5.4576 47.3296,4.3965 63.3774,29.2039 20.0781,31.0375 24.1152,74.0625 10.1214,107.868 -13.691,33.0739 -39.4891,60.8475 -70.9985,76.4354 -19.2906,9.5431 -35.7117,14.0428 -56.8087,15.5667 -5.3948,0.3897 -9.4448,1.0174 -9,1.3949 1.9784,1.6792 15.868,7.1459 23.4682,9.2366 l 8.3405,2.2944 69.3315,-0.2818 69.3314,-0.2817 10.1686,-5.089 c 21.566302,-10.7931 43.143702,-25.2789 77.168502,-51.8063 12.1,-9.4337 25.82499963,-19.7085 30.4999996,-22.8327 21.0473004,-14.0657 43.0634004,-22.1738 60.2832004,-22.201 8.76,-0.014 20.5418,-7.7957 35.513998,-23.4569 17.4084,-18.2095 29.4829,-39.8994 37.0582,-66.5688 4.8719,-17.1522 5.6471,-23.6368 5.616,-46.9818 -0.024,-18.4276 -0.3355,-22.8022 -2.1757,-30.6124 -6.6072,-28.0429 -20.1898,-47.0744 -43.660998,-61.1764 -11.1975,-6.7278 -18.2913,-8.7112 -31.1557,-8.7112 -10.5212,0 -11.3376,0.1552 -18,3.4219 -7.7871,3.8181 -16.3962,11.8483 -20.8498,19.4479 -11.7548,20.0581 -10.4927,48.2158 2.5669,57.2661 4.5414,3.1472 5.8099,5.13 5.7886,9.0484 -0.018,3.375 -0.7716,4.641 -3.669,6.166 -8.7507,4.606 -21.707,-4.1672 -27.4659004,-18.5982 -2.0177,-5.0563 -2.2987,-7.5062 -2.3226,-20.2521 -0.03,-15.9639 1.1523,-22.0665 6.9912,-36.0881 10.7685004,-25.8599 31.4375004,-39.7323 55.8961004,-37.5159 21.811,1.9765 42.967598,11.4531 60.240098,26.9831 11.7203,10.5381 24.8466,31.7206 30.6522,49.4651 l 3.3671,10.2912 3.3386,-3.8177 c 4.8781,-5.5781 12.5463,-11.0104 18.1865,-12.8838 7.0117,-2.3289 18.7625,-1.6551 25.0872,1.4385 11.1778,5.4674 22.5049,19.5739 28.5802,35.593 2.836,7.4779 3.5091,10.7842 3.9068,19.1883 0.7087,14.978 -2.9894,23.9892 -12.4039,30.2251 -9.3585,6.1988 -19.782,4.3922 -24.8834,-4.3127 -2.8347,-4.837 -3.2448,-10.6644 -0.9145,-12.9947 2.3981,-2.3981 3.8054,-1.9304 7.3084,2.4286 2.5853,3.2171 3.8639,4 6.5325,4 6.9656,0 11.5964,-6.6879 11.5758,-16.7179 -0.034,-16.3498 -10.05,-34.0511 -22.2341,-39.2926 -11.0143,-4.7382 -27.0067,-0.5356 -37.8937,9.9581 l -4.8603,4.6847 0,9.4601 c 0,30.2656 -9.9916,66.1825 -25.6557,92.2247 -10.105,16.8 -26.5753,35.3256 -40.676498,45.7525 l -7.8323,5.7914 7.8323,2.475 c 13.926498,4.4007 29.773098,10.52 56.578198,21.848 28.2315,11.9309 59.7797,24.816 60.7601,24.816 0.3317,0 0.4128,-5.3383 0.1801,-11.8628 -1.0426,-29.2442 10.1587,-51.3568 31.2693,-61.7286 7.8598,-3.8617 8.0881,-3.9073 19,-3.8019 12.3077,0.1189 17.941,1.6467 29.11783,7.8972 9.248,5.1717 21.4285,17.15 28.8671,28.3878 10.9718,16.5755 16.813,32.8573 22.1149,61.643 0.3154,1.7125 1.6885,0.7622 8.6693,-6 9.3232,-9.0312 17.5126,-13.6275 28.8379,-16.185 20.4601,-4.6205 40.6045,8.9172 46.4046,31.1853 1.7377,6.6716 1.9825,20.8026 0.4738,27.347 -0.5557,2.4101 -0.8635,4.5288 -0.684,4.7082 0.1795,0.1795 17.8576,-5.4717 39.2847,-12.5581 40.8436,-13.5078 53.8417,-17.1991 66.7808,-18.9647 33.4769,-4.5682 63.2305,5.9253 87.5381,30.873 16.4212,16.8535 28.4609,40.0816 53.4949,103.2072 17.8443,44.9962 18.9339,47.3821 32.585,71.3524 5.0116,8.8 9.6266,17.162 10.2556,18.5822 1.0827,2.4446 1.7604,2.6472 12.7238,3.805 7.5867,0.8011 24.857,1.1309 50.0802,0.9561 33.0306,-0.2288 40.1337,-0.011 50,1.5306 27.2214,4.2544 47.2543,10.4948 93.9999,29.282 31.155,12.5212 42.3227,18.0422 57.5,28.4264 13.6571,9.3441 22.03875,16.9206 45.67535,41.2882 11.1344,11.4788 20.3422,20.4788 20.4618,20 0.1196,-0.4787 0.9841,-10.7705 1.9212,-22.8705 z M 842.44185,315.19637 c 62.9842,-8.741 114.4326,-54.691 128.6384,-114.8907 3.0734,-13.0242 4.2416,-36.398 2.4536,-49.0913 -7.2322,-51.3424 -39.3016,-94.5353 -84.3274,-113.5768 -28.6283,-12.1069 -59.7357,-13.3218 -88.8468,-3.4697 -37.887,12.8222 -66.2805,42.7392 -76.0567,80.1378 -2.5743,9.8479 -3.5223,30.0506 -1.9233,40.9864 7.5815,51.8502 52.1214,91.1207 100.5623,88.6651 14.4347,-0.7317 21.6178,-2.6343 35.3908,-9.3742 10.0647,-4.9252 12.464,-6.6339 20.6076,-14.6758 9.8626,-9.7393 14.8162,-17.1874 18.8283,-28.3099 6.8153,-18.8936 5.6825,-37.0904 -3.4987,-56.2018 -5.6087,-11.6748 -17.9706,-24.2551 -28.8281,-29.3374 -9.7151,-4.5475 -15.5626,-5.8905 -25.4503,-5.8452 -21.4403,0.098 -39.8027,12.9306 -45.1044,31.5206 -4.2482,14.8964 2.6964,32.5896 15.1598,38.623 5.7286,2.7732 13.5767,2.3802 18.1992,-0.9114 2.9613,-2.1086 3.1153,-2.5479 3.0123,-8.5937 -0.1422,-8.3458 3.1356,-14.3759 9.485,-17.4497 14.3078,-6.9263 26.6801,3.1628 26.7085,21.7797 0.027,17.8669 -13.2971,34.6695 -32.4888,40.9697 -7.8913,2.5906 -22.1035,2.9073 -30.4759,0.6793 -27.0215,-7.1911 -47.0453,-35.03 -47.0453,-65.4067 0,-33.2357 21.657,-61.7068 55.5511,-73.0297 47.4435,-15.8494 100.3414,11.683 118.4154,61.633 16.8613,46.5985 1.3831,96.3376 -39.4388,126.7361 -8.35,6.2179 -23.5255,13.9519 -34.0934,17.3752 -14.6807,4.7556 -21.3539,5.6757 -40.4343,5.5751 -16.2326,-0.086 -18.3356,-0.3157 -29.0371,-3.1777 -29.4545,-7.8771 -53.8863,-23.9708 -72.4585,-47.73 -13.9617,-17.8612 -23.1035,-37.9538 -28.6639,-63 -2.1118,-9.5123 -1.8099,-43.9299 0.4736,-54 10.6486,-46.9601 39.1226,-82.9939 82.1859,-104.0064999 44.1815,-21.5582001 93.8915,-21.9180001 138.9999,-1.0063 35.5074,16.4607999 64.717,45.4377999 82.9266,82.2660999 5.1454,10.4065 13.57345,33.2125 13.57345,36.7296 0,0.8344 0.2463,1.5171 0.5473,1.5171 0.301,0 5.7919,-4.0995 12.2019,-9.11 39.4345,-30.8245 60.5518,-38.4758 105.7508,-38.3163 22.252,0.079 32.3942,1.4876 48,6.6686 11.0428,3.6662 18.564,7.367 29.0283,14.2833 12.5285,8.2808 20.3723,16.411 27.8967,28.9156 l 3.575,5.9411 0,-90.1911 0,-90.1912 -206.5108,0 c -181.97535,0 -207.66775,0.1848 -216.24995,1.5551 -64.7917,10.3455 -119.9294,51.7317001 -145.664,109.3349 -22.3195,49.959 -20.3054,106.864 5.523,156.0389 24.0842,45.8542 64.0879,78.0746 111.7218,89.9845 6.8507,1.7129 18.0947,3.4136 29.68,4.4892 5.6887,0.5281 22.6746,-0.2871 31.4999,-1.5119 z"
       id="path3962"
       inkscape:connector-curvature="0" />
  </g>
</svg>
