<?xml version="1.0" encoding="UTF-8" standalone="no"?>
<!-- Created with Inkscape (http://www.inkscape.org/) -->

<svg
   xmlns:dc="http://purl.org/dc/elements/1.1/"
   xmlns:cc="http://creativecommons.org/ns#"
   xmlns:rdf="http://www.w3.org/1999/02/22-rdf-syntax-ns#"
   xmlns:svg="http://www.w3.org/2000/svg"
   xmlns="http://www.w3.org/2000/svg"
   xmlns:sodipodi="http://sodipodi.sourceforge.net/DTD/sodipodi-0.dtd"
   xmlns:inkscape="http://www.inkscape.org/namespaces/inkscape"
   width="744.09448819"
   height="1052.3622047"
   id="svg2"
   version="1.1"
   inkscape:version="0.48.4 r9939"
   sodipodi:docname="branch.svg">
  <defs
     id="defs4" />
  <sodipodi:namedview
     id="base"
     pagecolor="#ffffff"
     bordercolor="#666666"
     borderopacity="1.0"
     inkscape:pageopacity="0.0"
     inkscape:pageshadow="2"
     inkscape:zoom="1.4"
     inkscape:cx="310.09341"
     inkscape:cy="957.26387"
     inkscape:document-units="px"
     inkscape:current-layer="g3112"
     showgrid="false"
     inkscape:window-width="1366"
     inkscape:window-height="768"
     inkscape:window-x="0"
     inkscape:window-y="0"
     inkscape:window-maximized="1" />
  <metadata
     id="metadata7">
    <rdf:RDF>
      <cc:Work
         rdf:about="">
        <dc:format>image/svg+xml</dc:format>
        <dc:type
           rdf:resource="http://purl.org/dc/dcmitype/StillImage" />
        <dc:title></dc:title>
      </cc:Work>
    </rdf:RDF>
  </metadata>
  <g
     inkscape:label="Layer 1"
     inkscape:groupmode="layer"
     id="layer1">
    <g
       id="g3059"
       transform="matrix(1,0,0,-1,50.714286,756.86714)">
      <g
         id="g3065"
         transform="matrix(-0.61825517,0.03628356,0.0230548,0.62012836,564.82662,201.20237)">
        <g
           id="g3112">
          <path
             style="fill:#ff7f2a;fill-opacity:1"
             d="M 281.34375 -7.03125 L 281.1875 -7 C 280.26087 -6.4891155 279.78385 -5.496542 279.125 -4.71875 C 275.82737 -0.40969025 272.58041 3.9348146 269.25 8.21875 C 268.61579 9.0046594 267.96413 9.8857912 266.96875 10.21875 C 266.0198 10.593258 265.02637 10.194309 264.125 9.875 C 262.15922 9.1469163 260.21587 8.4007084 258.28125 7.59375 C 257.16552 7.236305 255.98092 7.0736256 254.8125 7.1875 C 254.0907 7.2871166 252.8579 7.820593 253.4375 8.71875 C 253.95466 9.6905924 254.80842 10.439786 255.46875 11.3125 C 256.42071 12.483915 257.44837 13.698027 257.75 15.21875 C 257.98197 16.244308 257.67398 17.350346 257 18.15625 C 256.32054 18.981018 255.26751 19.270875 254.3125 19.65625 C 253.25305 20.033123 252.1915 20.405405 251.09375 20.65625 C 250.10633 20.903916 249.15142 21.246629 248.125 21.28125 C 246.12718 21.334429 244.12598 21.054454 242.15625 20.75 C 241.16086 20.716719 240.03602 20.353624 239.125 20.90625 C 238.25044 21.370625 238.33338 22.53619 239.0625 23.09375 C 239.97094 23.968995 241.13184 24.499537 242.15625 25.21875 C 245.83785 27.587017 249.41082 30.134062 253.03125 32.59375 C 255.96725 34.630908 258.92307 36.637198 261.6875 38.90625 C 262.54965 39.417059 263.11443 40.308633 263.40625 41.25 C 263.67874 42.398028 263.51899 43.663338 264.125 44.71875 C 264.58767 45.518425 265.41991 46.036261 266.28125 46.3125 C 267.46988 46.780399 268.69948 47.145463 269.78125 47.84375 C 270.47131 48.398409 270.92679 49.171467 271.21875 50 C 271.96439 51.74045 272.562 53.537742 273.125 55.34375 C 273.60175 57.080121 273.97066 58.859695 274.125 60.65625 C 274.29403 62.247514 274.35979 63.842317 274.46875 65.4375 C 274.5159 66.028623 274.39927 66.650204 274.4375 67.25 C 264.46181 68.167842 254.6183 70.33473 245.625 74.875 C 238.14698 79.224133 231.46362 86.349957 230.28125 95.21875 C 229.48724 103.40441 233.93662 110.88359 238.53125 117.28125 C 244.45374 125.80547 251.76409 133.8506 254.375 144.15625 C 256.08149 150.91885 252.8496 157.50492 249.96875 163.4375 C 247.94909 167.78511 245.53751 172.21562 245.03125 177.03125 C 229.63839 182.63339 214.33214 188.43271 198.9375 194.03125 C 174.64796 203.01117 150.28387 211.82519 125.90625 220.5625 C 121.95727 222.06604 117.75956 223.37552 114.375 225.9375 C 112.98737 228.42051 115.70313 231.50411 118.34375 231.0625 C 128.99963 232.79756 139.76076 235.79762 150.625 234.15625 C 159.06223 232.60687 166.18043 227.50191 173.65625 223.625 C 182.16325 218.87854 191.09866 214.93834 199.78125 210.53125 C 222.2907 199.5839 245.20498 189.50884 268.25 179.75 C 285.16693 173.31324 303.24394 170.50373 321.25 169.5 C 352.16284 167.92652 383.00512 172.27049 413.3125 177.96875 C 419.163 179.05249 425.00926 180.20649 430.84375 181.375 C 427.96852 185.3279 427.0272 190.44869 427.125 195.3125 C 427.4713 201.56566 430.83438 207.12356 434.40625 212.125 C 438.01956 217.47382 442.64 222.49131 444.1875 228.90625 C 445.31236 233.08596 442.97014 237.39319 439.625 239.71875 C 437.23692 241.4003 434.58049 242.51916 431.78125 243.3125 C 431.71229 243.13573 431.6255 242.96136 431.5625 242.78125 C 431.38845 242.30985 431.2896 241.81435 431.1875 241.3125 C 431.09485 240.78104 430.9858 240.25959 430.9375 239.71875 C 430.90175 239.47018 430.92408 239.20499 431 238.96875 C 431.13856 238.64126 431.34481 238.37868 431.53125 238.09375 C 431.67353 237.903 431.77919 237.64045 431.78125 237.375 C 431.78301 237.02531 431.60738 236.73203 431.53125 236.40625 C 431.4826 236.12946 431.47809 235.84332 431.59375 235.59375 C 431.8925 234.63557 432.26514 233.70562 432.625 232.78125 C 433.07473 231.6545 433.52748 230.51876 434 229.40625 C 434.1246 229.08162 434.29163 228.78481 434.375 228.4375 C 434.45847 228.19502 434.32328 227.86778 434.09375 227.875 C 433.84678 227.86533 433.66583 228.13237 433.46875 228.28125 C 433.106 228.63556 432.75302 228.98122 432.34375 229.25 C 432.13265 229.38627 431.88382 229.45381 431.65625 229.53125 C 431.40606 229.62348 431.16311 229.66347 430.90625 229.71875 C 430.6695 229.75712 430.41882 229.82921 430.1875 229.71875 C 429.95943 229.61223 429.75782 229.38316 429.6875 229.09375 C 429.57466 228.67059 429.66041 228.24007 429.71875 227.8125 C 429.75234 227.50086 429.81908 227.19123 429.8125 226.875 C 429.82689 226.56839 429.53205 226.6105 429.375 226.6875 C 429.12619 226.82399 428.9031 227.003 428.71875 227.25 C 428.42048 227.72511 428.09482 228.19648 427.78125 228.65625 C 427.6358 228.86342 427.48429 229.11599 427.25 229.15625 C 427.01109 229.21347 426.78026 229.07588 426.5625 228.96875 C 425.40107 228.36692 424.25143 227.73775 423.09375 227.125 C 422.87194 227.02338 422.68286 226.84075 422.4375 226.84375 L 422.40625 226.875 C 422.2314 227.11172 422.34126 227.43585 422.34375 227.71875 C 422.42737 228.24258 422.51484 228.78756 422.59375 229.3125 C 422.68303 229.98535 422.79693 230.63233 422.84375 231.3125 C 422.86901 231.80576 422.89214 232.3182 422.875 232.8125 C 422.86839 233.0995 422.78339 233.38477 422.59375 233.5625 C 422.38758 233.74719 422.11305 233.78201 421.875 233.875 C 421.53652 233.99467 421.19097 234.08158 420.875 234.28125 C 420.67074 234.39148 420.50604 234.73414 420.6875 234.96875 C 420.84954 235.16363 421.09163 235.22945 421.28125 235.375 C 421.44034 235.49026 421.58493 235.65823 421.65625 235.875 C 421.7357 236.11175 421.69606 236.38059 421.59375 236.59375 L 421.03125 237.5 C 420.85651 237.8082 420.61024 238.06971 420.46875 238.40625 C 420.36839 238.64573 420.36407 238.98622 420.53125 239.1875 C 420.70244 239.42012 420.99177 239.43683 421.21875 239.53125 C 421.43173 239.60153 421.63604 239.65692 421.84375 239.75 C 422.04872 239.83686 422.25229 239.95434 422.375 240.1875 C 422.48469 240.40101 422.52992 240.64095 422.6875 240.8125 C 422.86059 241.01972 423.16063 241.05316 423.375 240.9375 C 423.65424 240.75302 423.93725 240.58522 424.21875 240.40625 C 424.4363 240.26797 424.64663 240.14002 424.875 240.03125 C 425.08627 239.93739 425.35787 239.92668 425.53125 240.125 C 425.6825 240.30447 425.7752 240.55052 425.90625 240.75 C 426.05108 240.94317 426.27078 240.97448 426.46875 240.90625 C 426.6736 240.78481 426.86669 240.6108 427.0625 240.46875 C 427.25555 240.31637 427.44608 240.20257 427.65625 240.09375 C 427.86021 240.00487 428.09727 240.05515 428.28125 240.1875 C 428.5243 240.38565 428.74022 240.65291 428.96875 240.875 C 429.21652 241.19931 429.47792 241.51608 429.65625 241.90625 C 429.86385 242.36331 430.04628 242.83356 430.21875 243.3125 C 430.26188 243.43783 430.3006 243.56206 430.34375 243.6875 C 427.79169 244.29723 425.15537 244.66497 422.5625 244.875 C 413.70746 245.41235 404.53831 244.89444 396.125 241.59375 C 390.82304 239.54561 386.32587 235.95448 381.8125 232.5625 C 380.8724 232.00059 380.0371 231.03975 378.96875 230.78125 C 378.89377 230.72039 378.81813 230.65952 378.75 230.59375 C 378.26075 230.18345 377.68064 229.90402 377.1875 229.5 C 376.66689 229.10338 376.18085 228.6808 375.6875 228.25 C 375.52457 228.10159 375.31078 227.99061 375.21875 227.78125 C 375.04604 227.48272 374.94577 227.12375 374.96875 226.78125 C 375.19264 226.20787 375.47534 225.66933 375.8125 225.15625 C 376.22369 224.674 376.58213 224.15849 376.875 223.59375 C 377.04538 223.25683 377.25161 222.92213 377.4375 222.59375 L 378.15625 221.96875 C 378.18236 221.82808 378.16257 221.64337 378 221.59375 C 377.8731 221.53348 377.72332 221.57281 377.625 221.65625 C 377.49719 221.73701 377.34265 221.65761 377.21875 221.75 C 376.99788 221.87568 376.74044 221.78029 376.5 221.8125 C 376.12125 221.81538 375.72173 221.82681 375.34375 221.84375 C 375.17205 222.01219 374.92999 221.95405 374.71875 222.03125 C 374.46984 222.10272 374.15762 222.22051 373.90625 222.09375 C 373.76227 222.10003 373.64284 222.03441 373.5 222.03125 C 373.33568 221.94264 373.13752 221.87529 373.0625 221.6875 C 372.71457 221.14594 372.27516 220.66362 371.84375 220.1875 C 371.53202 219.83706 371.07127 219.6125 370.84375 219.1875 C 370.45742 218.719 370.27468 218.13763 370.03125 217.59375 C 369.7786 216.98435 369.57462 216.36772 369.34375 215.75 C 369.11492 215.12692 368.85331 214.51766 368.59375 213.90625 C 368.2473 214.43856 368.01848 215.01919 367.75 215.59375 C 367.46379 216.19226 367.19534 216.82535 366.875 217.40625 C 366.78187 217.57588 366.70359 217.74377 366.53125 217.84375 C 366.47456 217.95854 366.31755 217.97206 366.21875 218.03125 C 365.97418 218.05736 365.6644 218.15897 365.46875 217.9375 C 364.98079 217.49966 364.56002 216.99166 364.09375 216.53125 C 363.90707 216.33221 363.7179 216.13658 363.53125 215.9375 C 363.22243 216.4598 363.21096 217.09463 363.15625 217.6875 C 363.09146 218.30038 363.1272 218.9189 363.21875 219.53125 C 363.17312 219.62371 363.1976 219.75731 363.09375 219.8125 C 362.95748 220.12648 362.55718 220.15213 362.28125 220.28125 C 361.6346 220.48179 361.0016 220.68108 360.34375 220.84375 L 357.25 221.625 L 357.125 221.625 C 357.11167 221.65032 357.03489 221.7045 357.09375 221.75 C 357.09376 221.8497 357.21825 221.715 357.25 221.78125 L 357.28125 221.78125 L 357.25 221.875 C 357.25452 221.93841 357.32967 221.94604 357.375 221.9375 C 357.42783 221.9764 357.35382 222.08303 357.4375 222.09375 C 357.47101 222.17398 357.59152 222.10728 357.625 222.1875 C 357.55089 222.25812 357.67838 222.37541 357.75 222.3125 L 357.75 222.40625 C 357.74601 222.52008 357.91781 222.3693 357.90625 222.53125 C 358.39551 223.01507 358.85504 223.51731 359.3125 224.03125 C 359.77574 224.53914 360.21361 225.06496 360.6875 225.5625 C 361.04046 225.88243 361.31915 226.26877 361.59375 226.65625 C 361.70318 227.15898 361.84433 227.67128 361.8125 228.1875 C 361.72399 228.48285 361.57401 228.77478 361.59375 229.09375 C 361.5626 229.31676 361.48123 229.56672 361.59375 229.78125 C 361.60734 230.06398 361.92922 230.16882 362.125 230.3125 L 362.90625 230.875 C 363.27267 231.35872 363.4943 231.99482 363.375 232.59375 C 363.27745 233.23896 363.14919 233.85864 363.03125 234.5 C 363.02227 234.60831 362.99037 234.73502 363.03125 234.84375 C 363.05247 234.83455 363.15832 234.92662 363.15625 234.84375 C 363.80862 234.74504 364.4236 234.52998 365.0625 234.375 C 365.58355 234.21964 366.13704 234.0599 366.6875 234.09375 C 366.98558 234.12678 367.2653 234.10235 367.5625 234.09375 C 367.75145 234.00282 367.94468 233.88794 368.125 233.78125 C 368.49716 233.29488 368.75335 232.73672 369.125 232.25 C 369.33196 231.95498 369.7076 231.89634 370 231.71875 C 370.55353 231.54418 371.04248 231.15262 371.34375 230.65625 C 371.58448 230.34299 371.85536 229.96211 372.28125 229.90625 C 372.58332 229.84183 372.91789 229.79955 373.1875 230 C 373.81103 230.2242 374.38086 230.57068 374.96875 230.875 C 375.57219 231.21375 376.19138 231.54366 376.78125 231.90625 C 377.37374 232.26841 377.96084 232.63376 378.53125 233.03125 C 378.62117 233.1441 378.7383 233.23246 378.84375 233.3125 C 380.23405 234.70519 381.53143 236.18471 383.03125 237.46875 C 390.90329 244.33694 401.35866 247.43963 411.53125 247.90625 C 413.4814 248.04259 415.43649 248.12046 417.40625 248.15625 C 417.47601 248.54548 417.59495 248.91686 417.625 249.3125 C 417.80623 250.47363 417.88199 251.64342 417.96875 252.8125 C 418.03396 253.94499 418.03973 255.08736 418 256.21875 C 417.96342 257.1859 417.7039 258.14136 417.4375 259.0625 C 417.11552 259.76261 416.84883 260.48547 416.46875 261.15625 C 416.16358 261.62976 415.66532 261.99474 415.09375 262.0625 C 414.48776 262.09888 413.8898 262.13081 413.28125 262.0625 C 412.6764 262.01749 412.07462 261.9006 411.46875 261.90625 C 410.93184 262.00702 410.43342 262.36086 410.28125 262.90625 C 410.16803 263.44768 410.14966 264.00488 409.96875 264.53125 C 409.75399 265.12029 409.15631 265.4333 408.5625 265.5 C 407.9134 265.55791 407.27766 265.54333 406.625 265.53125 C 405.78042 265.51549 404.90717 265.52909 404.0625 265.5 C 403.43978 265.52806 402.79897 265.89404 402.59375 266.5 C 402.38995 267.01849 402.54871 267.58151 402.5 268.125 C 402.43989 268.72196 402.02496 269.21505 401.625 269.625 C 401.22469 270.05025 400.77912 270.42526 400.34375 270.8125 C 399.89909 271.26306 399.26935 271.59699 399.09375 272.25 C 398.89664 272.83748 399.275 273.466 399.75 273.8125 C 400.41861 274.29889 401.18687 274.54527 401.90625 274.9375 L 404.15625 276.03125 C 404.60983 276.32439 405.01645 276.82204 405.0625 277.375 C 405.10797 277.87963 404.88807 278.37021 404.625 278.78125 C 404.31951 279.28701 403.81625 279.68099 403.625 280.25 C 403.42702 280.91896 404.1566 281.37045 404.75 281.34375 C 405.69678 281.35904 406.61029 281.10396 407.53125 280.9375 C 408.1877 280.83756 408.82838 280.6032 409.5 280.71875 C 410.12555 280.84026 410.63771 281.32587 410.9375 281.875 C 411.46721 282.81411 411.91544 283.79432 412.34375 284.78125 C 412.90606 286.15623 413.29561 287.58923 413.75 289 C 414.08255 290.11156 414.39846 291.2288 414.71875 292.34375 C 414.99288 292.89565 415.03852 293.71543 415.6875 293.96875 L 415.8125 293.9375 C 416.39717 293.6543 416.69973 293.08343 417.125 292.625 C 419.26312 290.07248 421.37344 287.5045 423.53125 284.96875 C 423.94147 284.5044 424.37692 283.95161 425 283.78125 C 425.59533 283.58344 426.16883 283.86306 426.71875 284.09375 C 427.91732 284.61658 429.10377 285.17939 430.28125 285.75 C 430.96282 286.01214 431.71249 286.15322 432.4375 286.125 C 432.88605 286.08942 433.65013 285.79675 433.3125 285.21875 C 433.01517 284.59732 432.51313 284.09641 432.125 283.53125 C 431.56345 282.77028 430.96392 281.98524 430.8125 281.03125 C 430.69273 280.38685 430.87723 279.72531 431.3125 279.25 C 431.75159 278.76319 432.43193 278.61058 433.03125 278.40625 C 433.69495 278.21098 434.34678 278.02197 435.03125 277.90625 C 435.64744 277.78849 436.27086 277.60923 436.90625 277.625 C 438.14264 277.6645 439.35172 277.89598 440.5625 278.15625 C 441.17714 278.21302 441.86152 278.49715 442.4375 278.1875 C 442.98891 277.93126 442.96918 277.18471 442.53125 276.8125 C 441.98978 276.23677 441.30427 275.85817 440.6875 275.375 C 438.46593 273.77279 436.30664 272.09419 434.125 270.4375 C 432.35677 269.06767 430.56306 267.69491 428.90625 266.1875 C 428.385 265.83945 428.06497 265.28185 427.90625 264.6875 C 427.76425 263.96569 427.88159 263.17648 427.53125 262.5 C 427.26364 261.98731 426.77616 261.64006 426.25 261.4375 C 425.52591 261.10421 424.77771 260.81602 424.125 260.34375 C 423.71115 259.97475 423.44265 259.49314 423.28125 258.96875 C 422.86038 257.86239 422.52519 256.73414 422.21875 255.59375 C 421.96403 254.49968 421.77275 253.36969 421.71875 252.25 C 421.65093 251.25708 421.65559 250.27442 421.625 249.28125 C 421.60913 248.90434 421.67122 248.50628 421.65625 248.125 C 427.85133 247.91914 433.98568 246.96052 439.65625 244.46875 C 444.37984 242.04306 448.68953 237.86314 449.625 232.40625 C 450.30462 227.3589 447.72441 222.57158 445.03125 218.4375 C 441.56616 212.9365 437.22036 207.67306 435.84375 201.1875 C 434.94461 196.9319 437.11338 192.94943 439.03125 189.375 C 440.00164 187.48818 441.08592 185.58872 441.78125 183.5625 C 447.30359 184.66543 452.80631 185.76064 458.34375 186.78125 C 470.5603 188.6462 482.9332 189.23672 495.15625 191.0625 C 500.52071 191.89067 506.04085 192.11569 511.375 190.96875 C 517.9447 189.81905 524.42002 187.05132 531.25 187.34375 C 534.2173 187.35801 537.12491 187.71311 540 188.3125 C 539.98065 188.96751 539.95152 189.60134 539.90625 190.25 C 539.8293 191.12308 539.69691 191.99836 539.53125 192.84375 C 539.38726 193.56578 539.08326 194.21522 538.75 194.84375 C 538.39556 195.29089 538.05649 195.77739 537.65625 196.1875 C 537.34243 196.46761 536.89839 196.62603 536.40625 196.53125 C 535.88859 196.40396 535.38252 196.26964 534.875 196.0625 C 534.36795 195.87369 533.85765 195.61935 533.34375 195.46875 C 532.87719 195.40781 532.41124 195.56396 532.21875 195.9375 C 532.05952 196.318 531.99604 196.74194 531.78125 197.09375 C 531.53077 197.48441 530.97967 197.57002 530.46875 197.46875 C 529.91219 197.34668 529.36391 197.14464 528.8125 196.96875 C 528.09883 196.74101 527.36837 196.55029 526.65625 196.3125 C 526.1253 196.17461 525.55709 196.28171 525.3125 196.6875 C 525.07953 197.02756 525.10476 197.50768 525 197.90625 C 524.87948 198.34232 524.51164 198.6047 524.125 198.8125 C 523.73613 199.03183 523.28895 199.19342 522.875 199.375 C 522.44568 199.60209 521.88116 199.67607 521.65625 200.125 C 521.42075 200.5189 521.66932 201.08537 522.03125 201.46875 C 522.54081 202.00744 523.15517 202.39457 523.71875 202.875 C 524.30513 203.34447 524.91369 203.81179 525.5 204.28125 C 525.85004 204.61884 526.11887 205.1014 526.09375 205.53125 C 526.07355 205.92448 525.8334 206.22516 525.5625 206.46875 C 525.24474 206.77314 524.79094 206.96234 524.5625 207.34375 C 524.31594 207.79872 524.86924 208.33727 525.375 208.46875 C 526.17519 208.72228 526.98161 208.76554 527.78125 208.875 C 528.34898 208.96717 528.94443 208.95972 529.5 209.21875 C 530.01573 209.47047 530.37266 209.94561 530.5625 210.4375 C 530.9044 211.28248 531.15819 212.14429 531.40625 213 C 531.72219 214.18345 531.87355 215.37953 532.09375 216.5625 C 532.2458 217.48804 532.39007 218.41877 532.53125 219.34375 C 532.69906 219.83114 532.66723 220.4551 533.1875 220.8125 L 533.28125 220.8125 C 533.8096 220.74777 534.11757 220.39421 534.53125 220.15625 C 536.64056 218.77234 538.75096 217.36619 540.875 216 C 541.27664 215.75369 541.7022 215.43837 542.25 215.46875 C 542.7774 215.4713 543.24864 215.84115 543.6875 216.15625 C 544.64185 216.85788 545.56907 217.5801 546.5 218.3125 C 547.04679 218.68491 547.66372 218.96108 548.28125 219.125 C 548.66547 219.21269 549.34351 219.2109 549.125 218.6875 C 548.9461 218.1415 548.57531 217.65155 548.3125 217.125 C 547.92624 216.40594 547.51715 215.63507 547.5 214.875 C 547.47371 214.35711 547.70085 213.90444 548.125 213.65625 C 548.55384 213.40032 549.15594 213.47018 549.6875 213.46875 C 550.27263 213.49066 550.84409 213.50641 551.4375 213.59375 C 551.97321 213.66217 552.52611 213.66942 553.0625 213.84375 C 554.10528 214.18957 555.09841 214.68133 556.09375 215.1875 C 556.60753 215.38796 557.16336 215.77453 557.6875 215.6875 C 558.18447 215.63456 558.23384 215.08088 557.90625 214.6875 C 557.51478 214.11378 556.96607 213.64798 556.5 213.125 C 554.80496 211.34572 553.18613 209.52901 551.53125 207.71875 C 550.19322 206.23102 548.85265 204.75079 547.625 203.1875 C 547.22403 202.79111 547.00256 202.27127 546.9375 201.78125 C 546.90139 201.19912 547.09273 200.63234 546.875 200.03125 C 546.70861 199.57509 546.32835 199.19388 545.90625 198.90625 C 545.33175 198.46919 544.74784 198.05517 544.25 197.53125 C 543.94255 197.14644 543.76348 196.71896 543.6875 196.28125 C 543.4601 195.33706 543.314 194.37818 543.1875 193.4375 C 543.09944 192.54507 543.07124 191.67304 543.15625 190.8125 C 543.19873 190.25456 543.27204 189.70601 543.34375 189.15625 C 547.62122 190.3286 551.80676 191.94495 555.84375 193.75 C 567.55486 198.63036 579.89216 201.91166 591.3125 207.5 C 598.69072 210.9011 606.26357 214.25934 614.40625 215.25 C 615.54896 215.33406 616.91151 215.82706 617.9375 215.40625 C 618.50086 214.25037 616.78607 213.79706 615.96875 213.5625 C 603.79579 208.17903 590.34478 205.95453 578.75 199.21875 C 570.48302 194.76007 562.30982 189.81107 553.09375 187.5625 C 542.35953 184.41334 530.94136 182.97221 519.84375 184.90625 C 509.43998 186.4838 498.7651 186.93767 488.375 185 C 476.30093 182.6989 464.49625 179.00991 452.3125 177.25 C 430.92824 173.91288 409.59816 170.23729 388.15625 167.28125 C 385.79915 166.96472 383.45484 166.63376 381.09375 166.34375 C 381.33553 165.67843 381.60069 165.00452 381.875 164.34375 C 382.24543 163.40076 382.73908 162.49373 383.28125 161.59375 C 383.88293 160.66 384.49351 159.73654 385.1875 158.84375 C 385.48281 158.41683 385.8683 158.01884 386.34375 157.75 C 387.06214 157.41902 387.78919 157.26818 388.53125 157.0625 C 389.05908 156.94661 389.61402 156.71883 390 156.3125 C 390.50724 155.7764 390.63427 155.09651 390.96875 154.5 C 391.28142 154.01322 391.71592 153.55216 392.28125 153.3125 C 394.19359 152.21085 396.18413 151.25457 398.15625 150.28125 C 400.57993 149.10876 402.99389 147.90337 405.4375 146.78125 C 406.12692 146.43719 406.85115 146.18045 407.5 145.75 C 407.99796 145.48106 408.23071 144.86932 407.8125 144.59375 C 407.38762 144.27031 406.68981 144.42262 406.125 144.40625 C 404.96965 144.49846 403.83342 144.56624 402.71875 144.46875 C 402.14724 144.41484 401.64094 144.22752 401.125 144.0625 C 400.54746 143.89192 400.00488 143.64206 399.46875 143.40625 C 398.99278 143.16959 398.43926 142.99025 398.1875 142.53125 C 397.93593 142.08249 397.95761 141.47075 398.25 140.9375 C 398.65986 140.1454 399.43665 139.5544 400.15625 138.96875 C 400.66525 138.53103 401.24368 138.15155 401.6875 137.65625 C 402.15511 137.20227 401.54634 136.89021 401.15625 136.8125 C 400.51737 136.71178 399.83991 136.75633 399.15625 136.90625 C 397.94126 137.26496 396.72003 137.59025 395.5 137.90625 C 394.94289 138.0436 394.31805 138.23067 393.84375 138 C 393.33672 137.78962 393.10736 137.28058 392.875 136.84375 C 391.67921 134.46668 390.54838 132.07671 389.375 129.6875 C 389.12751 129.25412 389.03399 128.70809 388.59375 128.40625 L 388.5 128.375 C 387.84792 128.52086 387.55971 129.2177 387.15625 129.65625 C 386.54956 130.56699 385.92923 131.46848 385.3125 132.375 C 384.50105 133.52219 383.74133 134.70715 382.84375 135.8125 C 382.17716 136.60306 381.52648 137.38724 380.78125 138.125 C 380.35574 138.55854 379.74943 138.90077 379.15625 138.9375 C 378.52361 138.96422 377.9945 138.71669 377.4375 138.5625 C 376.66358 138.3239 375.94295 137.9935 375.09375 137.90625 C 374.57197 137.82083 373.79653 138.131 373.78125 138.71875 C 373.78815 139.22111 374.09178 139.63292 374.21875 140.09375 C 374.33529 140.46989 374.40458 140.88977 374.21875 141.3125 C 374.01819 141.77587 373.52033 142.14342 373.03125 142.34375 C 372.26175 142.57829 371.48825 142.82797 370.71875 143.0625 C 369.96394 143.31864 369.17405 143.43992 368.4375 143.78125 C 367.91391 144.0245 367.4307 144.51263 367.4375 145.03125 C 367.40622 145.60308 367.85786 145.94615 368.125 146.375 C 368.40201 146.74918 368.70258 147.12846 368.9375 147.53125 C 369.17637 147.92094 369.39949 148.36288 369.28125 148.875 C 369.16836 149.3407 368.87357 149.82038 368.90625 150.28125 C 368.91501 150.81642 369.38981 151.19143 369.9375 151.28125 C 370.69961 151.34611 371.4293 151.42387 372.1875 151.5 C 372.77337 151.55889 373.37498 151.63221 373.9375 151.75 C 374.44825 151.86948 374.88426 152.19694 374.90625 152.71875 C 374.91626 153.18393 374.77355 153.65424 374.71875 154.125 C 374.69753 154.60318 375.04992 154.95149 375.5 155.09375 C 376.03903 155.16265 376.60354 155.13059 377.15625 155.15625 C 377.71892 155.16284 378.25092 155.24866 378.78125 155.34375 C 379.27183 155.46175 379.61393 155.84771 379.75 156.28125 C 379.89607 156.8898 379.91421 157.52899 380 158.15625 C 379.97268 158.96497 379.93313 159.77039 379.6875 160.59375 C 379.39727 161.55649 379.04037 162.51612 378.65625 163.46875 C 378.30956 164.29081 377.95449 165.12417 377.5625 165.9375 C 360.7796 163.97898 343.90252 162.75395 327 162.78125 C 323.08491 162.73792 319.1651 162.73672 315.25 162.78125 C 298.73973 163.11573 282.39005 165.83314 266.46875 170.15625 C 268.60338 164.69455 269.17827 158.62758 268.84375 152.8125 C 267.90965 142.7835 262.12735 134.11656 256.0625 126.40625 C 249.90991 118.1409 242.16372 110.51963 239.28125 100.34375 C 237.21501 93.724578 240.70946 86.5891 245.96875 82.53125 C 249.71166 79.60815 253.94968 77.508445 258.40625 75.96875 C 258.53119 76.253222 258.66608 76.521855 258.78125 76.8125 C 259.09044 77.554565 259.33635 78.358378 259.53125 79.15625 C 259.71267 80.002652 259.88959 80.853064 260 81.71875 C 260.07261 82.115341 260.07711 82.518953 259.96875 82.90625 C 259.76477 83.446295 259.44006 83.898928 259.15625 84.375 C 258.93806 84.695365 258.76865 85.103929 258.78125 85.53125 C 258.79939 86.094091 259.10759 86.545494 259.25 87.0625 C 259.34513 87.503276 259.35919 87.993759 259.1875 88.40625 C 258.76283 89.976229 258.21283 91.509898 257.6875 93.03125 C 257.02927 94.886732 256.41462 96.759034 255.71875 98.59375 C 255.53714 99.127872 255.26997 99.620792 255.15625 100.1875 C 255.03609 100.58555 255.25498 101.06455 255.625 101.03125 C 256.02418 101.02348 256.28461 100.60192 256.59375 100.34375 C 257.15795 99.739386 257.73059 99.127382 258.375 98.65625 C 258.70753 98.41705 259.10612 98.302353 259.46875 98.15625 C 259.86701 97.984225 260.27626 97.894448 260.6875 97.78125 C 261.0673 97.69711 261.46378 97.531607 261.84375 97.6875 C 262.21823 97.837363 262.5254 98.197213 262.65625 98.65625 C 262.86375 99.326485 262.78725 100.05651 262.71875 100.75 C 262.68323 101.25462 262.5329 101.77304 262.5625 102.28125 C 262.55768 102.77596 263.06365 102.66997 263.3125 102.53125 C 263.70588 102.28814 264.06104 101.94609 264.34375 101.53125 C 264.79663 100.7386 265.2715 99.95691 265.75 99.1875 C 265.97231 98.840407 266.18678 98.43066 266.5625 98.34375 C 266.94465 98.229111 267.32963 98.410688 267.6875 98.5625 C 269.59808 99.421212 271.50107 100.34212 273.40625 101.21875 C 273.77033 101.36131 274.10418 101.62175 274.5 101.59375 L 274.5625 101.5625 C 274.83049 101.1651 274.61475 100.64247 274.59375 100.1875 C 274.42736 99.352525 274.28386 98.493454 274.125 97.65625 C 273.94053 96.582024 273.71013 95.527523 273.59375 94.4375 C 273.52338 93.646199 273.4395 92.859478 273.4375 92.0625 C 273.43095 91.600065 273.57959 91.116383 273.875 90.8125 C 274.19666 90.495856 274.59013 90.39086 274.96875 90.21875 C 275.50786 89.994233 276.09577 89.85112 276.59375 89.5 C 276.9168 89.303352 277.15069 88.73536 276.84375 88.375 C 276.57054 88.076722 276.18977 87.997535 275.875 87.78125 C 275.61133 87.610804 275.34687 87.373303 275.21875 87.03125 C 275.07632 86.657801 275.12892 86.196409 275.28125 85.84375 L 276.15625 84.3125 C 276.41978 83.800088 276.76058 83.367381 276.96875 82.8125 C 277.11635 82.417677 277.12564 81.870589 276.84375 81.5625 C 276.5535 81.204364 276.09074 81.22425 275.71875 81.09375 C 275.3708 81.000768 275.02831 80.911401 274.6875 80.78125 C 274.35148 80.660847 273.99328 80.519831 273.78125 80.15625 C 273.59141 79.823064 273.48337 79.38615 273.21875 79.125 C 272.92696 78.80791 272.49529 78.793659 272.15625 79 C 271.71665 79.323216 271.25609 79.622936 270.8125 79.9375 C 270.46969 80.180534 270.14329 80.428414 269.78125 80.625 C 269.4459 80.795979 269.01047 80.833982 268.71875 80.53125 C 268.46388 80.256757 268.31723 79.871103 268.09375 79.5625 C 267.84842 79.265375 267.47166 79.215265 267.15625 79.34375 C 266.83293 79.558495 266.52625 79.877948 266.21875 80.125 C 265.91632 80.388426 265.58267 80.586308 265.25 80.78125 C 264.92615 80.94353 264.55488 80.88309 264.25 80.6875 C 263.84584 80.391604 263.50716 79.992015 263.125 79.65625 C 262.70565 79.157808 262.27998 78.642217 261.96875 78.03125 C 261.60628 77.315427 261.27585 76.59811 260.96875 75.84375 C 260.8879 75.636606 260.7996 75.426099 260.71875 75.21875 C 264.80397 73.995057 269.04338 73.208252 273.21875 72.625 C 287.47796 70.924183 302.28593 70.858481 316.0625 75.375 C 324.74241 78.16991 332.19969 83.530793 339.6875 88.5625 C 341.24936 89.383586 342.68079 90.8554 344.4375 91.15625 C 344.55504 91.242072 344.67373 91.343689 344.78125 91.4375 C 345.59548 92.051497 346.52361 92.45898 347.34375 93.0625 C 348.20778 93.651517 349.05292 94.259651 349.875 94.90625 C 350.14686 95.129658 350.49516 95.328056 350.65625 95.65625 C 350.9529 96.120283 351.11028 96.66547 351.09375 97.21875 C 350.76681 98.162499 350.35711 99.080076 349.84375 99.9375 C 349.20906 100.7523 348.65753 101.62614 348.21875 102.5625 C 347.96398 103.12072 347.68656 103.67281 347.40625 104.21875 L 346.25 105.28125 C 346.21628 105.51006 346.26587 105.81051 346.53125 105.875 C 346.73968 105.95995 346.97133 105.86226 347.125 105.71875 C 347.32643 105.57673 347.58682 105.72298 347.78125 105.5625 C 348.13018 105.33942 348.55138 105.44953 348.9375 105.375 C 349.5486 105.33464 350.17223 105.25045 350.78125 105.1875 C 351.04826 104.90026 351.47621 104.98792 351.8125 104.84375 C 352.20993 104.70524 352.68045 104.50728 353.09375 104.6875 C 353.32574 104.66377 353.55053 104.72715 353.78125 104.71875 C 354.05177 104.84581 354.36766 104.95492 354.5 105.25 C 355.09403 106.08855 355.83767 106.83713 356.5625 107.5625 C 357.08664 108.09694 357.82604 108.36888 358.21875 109.03125 C 358.87037 109.74861 359.19948 110.6791 359.625 111.53125 C 360.06933 112.48795 360.46533 113.46535 360.875 114.4375 C 361.28171 115.41846 361.70065 116.38447 362.15625 117.34375 C 362.68345 116.45452 363.03867 115.48111 363.4375 114.53125 C 363.86352 113.54119 364.23659 112.52746 364.71875 111.5625 C 364.85888 111.28076 365.0091 110.98965 365.28125 110.8125 C 365.36582 110.62245 365.59409 110.60457 365.75 110.5 C 366.14315 110.4349 366.6397 110.22462 366.96875 110.5625 C 367.78255 111.22093 368.50109 111.99071 369.28125 112.6875 C 369.59449 112.99014 369.90557 113.29105 370.21875 113.59375 C 370.68583 112.72417 370.66602 111.70913 370.71875 110.75 C 370.78657 109.75772 370.71526 108.75791 370.53125 107.78125 C 370.59934 107.62816 370.55444 107.41111 370.71875 107.3125 C 370.91984 106.79442 371.53117 106.70256 371.96875 106.46875 C 373.00036 106.085 374.04179 105.73012 375.09375 105.40625 L 380.03125 103.84375 L 380.21875 103.8125 C 380.23879 103.77054 380.379 103.7239 380.28125 103.65625 C 380.27521 103.49583 380.08646 103.69732 380.03125 103.59375 L 379.96875 103.59375 L 380 103.4375 C 379.98892 103.33589 379.85389 103.32578 379.78125 103.34375 C 379.69367 103.2862 379.82328 103.13435 379.6875 103.125 C 379.62865 102.99907 379.4651 103.12592 379.40625 103 C 379.52162 102.87937 379.29932 102.70451 379.1875 102.8125 L 379.1875 102.625 C 379.18711 102.44146 378.92856 102.69923 378.9375 102.4375 C 378.11884 101.70521 377.33164 100.94001 376.5625 100.15625 C 375.78438 99.382774 375.04468 98.568312 374.25 97.8125 C 373.66115 97.331047 373.15394 96.753796 372.6875 96.15625 C 372.48073 95.357664 372.2296 94.552394 372.25 93.71875 C 372.37513 93.235149 372.6135 92.761379 372.5625 92.25 C 372.59935 91.888219 372.69448 91.490819 372.5 91.15625 C 372.46108 90.702596 371.94959 90.556443 371.625 90.34375 L 370.34375 89.5 C 369.72335 88.756264 369.34339 87.756228 369.5 86.78125 C 369.61872 85.733846 369.75439 84.699364 369.90625 83.65625 C 369.9141 83.481131 369.97876 83.296098 369.90625 83.125 C 369.87259 83.141843 369.71044 83.023043 369.71875 83.15625 C 368.67179 83.376692 367.6781 83.784035 366.65625 84.09375 C 365.82463 84.39294 364.95294 84.658733 364.0625 84.65625 C 363.57943 84.631282 363.10415 84.739316 362.625 84.78125 C 362.3255 84.945411 362.03462 85.1238 361.75 85.3125 C 361.17854 86.130239 360.75812 87.05675 360.1875 87.875 C 359.87119 88.369254 359.27376 88.499141 358.8125 88.8125 C 357.92962 89.145669 357.1752 89.797853 356.71875 90.625 C 356.34902 91.151774 355.96525 91.807395 355.28125 91.9375 C 354.79759 92.069682 354.22841 92.172073 353.78125 91.875 C 352.76146 91.573127 351.81082 91.09041 350.84375 90.65625 C 349.84952 90.168171 348.88002 89.652736 347.90625 89.125 C 346.91054 88.58866 345.89723 88.068261 344.9375 87.46875 C 344.79773 87.316224 344.62699 87.201204 344.46875 87.09375 C 342.14134 84.98412 339.9664 82.705716 337.46875 80.78125 C 324.35169 70.473284 307.28964 66.446466 290.84375 66.65625 C 287.6851 66.620987 284.49681 66.652509 281.3125 66.78125 C 281.17626 66.185096 281.0071 65.610627 280.9375 65 C 280.57534 63.148779 280.39767 61.247914 280.1875 59.375 C 280.01431 57.558907 279.91001 55.730476 279.90625 53.90625 C 279.9073 52.346604 280.25032 50.819824 280.625 49.3125 C 281.10264 48.155582 281.48932 46.958969 282.0625 45.84375 C 282.52662 45.053019 283.30034 44.413013 284.21875 44.25 C 285.1946 44.134237 286.16999 44.010054 287.15625 44.0625 C 288.13514 44.077803 289.11626 44.222509 290.09375 44.15625 C 290.95424 43.943398 291.75589 43.329438 291.96875 42.4375 C 292.11899 41.555624 292.08336 40.645304 292.34375 39.78125 C 292.65501 38.813175 293.60814 38.257156 294.5625 38.09375 C 295.60663 37.939276 296.66468 37.917194 297.71875 37.875 C 299.08279 37.820549 300.44752 37.720463 301.8125 37.6875 C 302.81584 37.583552 303.83015 36.900651 304.125 35.90625 C 304.42281 35.05273 304.17272 34.160353 304.21875 33.28125 C 304.27992 32.315034 304.87909 31.509901 305.5 30.8125 C 306.12056 30.090447 306.82057 29.445451 307.5 28.78125 C 308.19062 28.014281 309.19328 27.411076 309.4375 26.34375 C 309.72037 25.379841 309.09991 24.418939 308.3125 23.90625 C 307.20422 23.18676 305.90331 22.844437 304.71875 22.28125 L 301.0625 20.71875 C 300.31287 20.289909 299.63875 19.541639 299.53125 18.65625 C 299.42758 17.848569 299.75633 17.06123 300.15625 16.375 C 300.61895 15.532349 301.38173 14.839878 301.65625 13.90625 C 301.93563 12.811157 300.73735 12.119752 299.78125 12.21875 C 298.25229 12.283594 296.78888 12.801434 295.3125 13.15625 C 294.25903 13.379048 293.21588 13.810006 292.125 13.6875 C 291.10811 13.551066 290.26679 12.824014 289.75 11.96875 C 288.83873 10.507692 288.09423 8.9538441 287.34375 7.40625 C 286.35367 5.2469163 285.6305 2.9771055 284.8125 0.75 C 284.20909 -1.0071591 283.61508 -2.7674868 283.03125 -4.53125 C 282.55571 -5.3933995 282.40636 -6.6849216 281.34375 -7.03125 z "
             transform="matrix(-1.6139338,0.09443088,-0.06000197,-1.6090587,1026.7833,835.97115)"
             id="path2985" />
        </g>
      </g>
    </g>
  </g>
</svg>
